<svg width="116" height="50" viewBox="0 0 116 50" fill="none" xmlns="http://www.w3.org/2000/svg">
<g clip-path="url(#clip0_54_120)" filter="url(#filter0_d_54_120)">
<path d="M41.8117 24.6367L35.2314 13.1349C34.2629 11.4416 32.1542 10.6696 30.3602 11.4609C29.5032 11.8385 28.8665 12.4879 28.4936 13.2528L17.7878 31.8427C16.8533 33.4639 17.1704 35.5684 18.64 36.735C20.4921 38.2046 23.1673 37.6393 24.3004 35.6743L28.8301 27.8092C30.1811 25.4641 33.5875 25.4689 34.9336 27.8188C35.9698 29.6299 36.9043 31.9823 39.5069 31.1597C42.3879 30.2457 43.2256 27.1093 41.8117 24.6367Z" fill="#D7E51C"/>
<path d="M4.67311 12.924L11.2535 24.4258C12.2219 26.1191 14.3306 26.8911 16.1246 26.0998C16.9817 25.7222 17.6184 25.0728 17.9912 24.3079L28.697 5.71796C29.6316 4.09684 29.3144 1.99227 27.8448 0.825733C25.9928 -0.643858 23.3175 -0.0786306 22.1845 1.88644L17.6547 9.75152C16.3038 12.0966 12.8974 12.0918 11.5513 9.74189C10.5151 7.93076 9.58055 5.57845 6.97793 6.40104C4.09448 7.31503 3.25922 10.4514 4.67311 12.924Z" fill="#D7E51C"/>
<path d="M58.052 10.5396L61.8143 10.5685L55.9603 23.6433L53.3383 23.624L47.7118 10.4626L51.4741 10.4915L54.7328 19.03L58.052 10.5396Z" fill="white"/>
<path d="M63.8213 8.50964C63.0272 7.7087 63.0369 6.30886 63.8431 5.544C64.6518 4.75509 66.0584 4.76471 66.8525 5.56805C67.6466 6.34494 67.6369 7.74478 66.8307 8.53369C66.0245 9.3226 64.6179 9.31298 63.8213 8.50964ZM66.9082 23.7515L63.4848 23.7251L63.5865 10.5829L67.0098 10.6094L66.9082 23.7515Z" fill="white"/>
<path d="M79.5363 23.0757C78.4372 23.79 77.1492 24.1436 75.6191 24.1316C72.5855 24.1075 71.0215 22.3108 71.0482 18.9122L71.0893 13.4861L68.9297 13.4692L68.9515 10.6238L71.1353 10.6407L71.1716 5.98657L74.5708 6.01303L74.5344 10.6671L78.9044 10.7008L78.8826 13.5462L74.5127 13.5125L74.4715 18.7222C74.4594 20.2664 75.084 21.0409 76.3236 21.0505C76.9797 21.0553 77.7326 20.8436 78.5388 20.3915L79.5363 23.0757Z" fill="white"/>
<path d="M108.044 22.472C108.054 21.3872 108.933 20.5502 110.073 20.5574C111.141 20.5646 112.01 21.4161 112 22.5008C111.99 23.6337 111.111 24.4707 110.044 24.4635C108.903 24.4563 108.034 23.6072 108.044 22.472Z" fill="white"/>
<path d="M86.9374 22.6524C87.6976 22.4239 88.4554 22.2555 89.1938 22.1521C89.5836 22.0992 89.9589 22.0703 90.3245 22.0679L89.7313 20.4732C88.9275 20.9254 88.1722 21.1371 87.5185 21.1323C86.2813 21.1227 85.6543 20.3458 85.6664 18.804L85.7075 13.5943L90.0775 13.628L90.0993 10.7826L85.7293 10.7489L85.7656 6.09482L82.3665 6.06836L82.3302 10.7225L80.1464 10.7056L80.1246 13.551L82.2842 13.5678L82.243 18.994C82.2261 21.3175 82.95 22.8905 84.3808 23.6626C84.4801 23.6145 84.5793 23.5639 84.681 23.5158C85.417 23.1719 86.1796 22.8809 86.9374 22.6524Z" fill="white"/>
<path d="M97.481 22.6115C97.7934 22.763 98.1299 22.9603 98.4858 23.1984C98.8296 23.4317 99.1709 23.6914 99.4978 23.9729C99.5486 24.0162 99.5922 24.057 99.6382 24.0979C100.619 23.8309 101.485 23.3018 102.241 22.5009L102.231 23.6145C102.374 23.564 102.522 23.5159 102.677 23.4798C103.112 23.3764 103.592 23.3307 104.09 23.3379C104.56 23.3451 105.027 23.398 105.483 23.4942L105.579 10.9005L102.328 10.8764L102.316 12.4446C101.161 11.1578 99.7568 10.5204 98.1057 10.5084C96.2366 10.494 94.6533 11.1338 93.4065 12.4254C92.1596 13.6929 91.5156 15.3285 91.4987 17.3056C91.4841 19.2827 92.0773 20.9519 93.3048 22.2868C93.7527 22.7751 94.249 23.1719 94.7864 23.4822L95.261 22.9097C95.5103 22.6163 96.2148 22.0006 97.481 22.6115ZM95.9655 14.7127C96.6748 13.9695 97.5513 13.616 98.6432 13.6232C99.7108 13.6304 100.582 14.0008 101.28 14.7536C101.977 15.5065 102.335 16.4012 102.328 17.4379C102.321 18.4986 101.948 19.3885 101.238 20.1317C100.529 20.8725 99.6527 21.2285 98.585 21.2213C97.5174 21.2141 96.6458 20.8437 95.9485 20.0908C95.2513 19.338 94.9172 18.4432 94.9244 17.3825C94.9341 16.3435 95.2803 15.4536 95.9655 14.7127Z" fill="white"/>
<path d="M86.5621 33.2426C86.7728 33.9377 86.981 34.6304 87.1916 35.3183C87.4022 36.0086 87.6492 36.6652 87.9349 37.2906C88.2206 37.9159 88.5644 38.486 88.9662 39.0031C89.3681 39.5178 89.8669 39.9387 90.4624 40.2634C90.4745 40.3548 90.4576 40.4174 90.4092 40.4462C90.3632 40.4751 90.2978 40.4895 90.2179 40.4895C90.1356 40.4895 90.0557 40.4847 89.9734 40.4727C89.8911 40.4607 89.8209 40.4607 89.7628 40.4727C89.7385 40.6242 89.7894 40.7084 89.9104 40.7252C90.0339 40.7421 90.1695 40.7565 90.322 40.7685C90.2978 40.9201 90.3099 41.0331 90.3559 41.1077C90.4019 41.1822 90.4673 41.2953 90.5472 41.4468C89.9879 41.899 89.4626 42.0746 88.9735 41.976C88.4845 41.8773 88.022 41.6056 87.5911 41.1606C87.1601 40.7156 86.7631 40.148 86.4024 39.4577C86.0416 38.7698 85.7172 38.0578 85.4315 37.3291C85.1458 36.6003 84.8941 35.898 84.6786 35.2269C84.4631 34.5558 84.284 34.0171 84.146 33.6106C83.9837 33.9233 83.807 34.3346 83.6206 34.8445C83.4342 35.3544 83.255 35.8859 83.088 36.4439C82.9185 36.9995 82.7708 37.5407 82.6425 38.0675C82.5142 38.5942 82.427 39.0368 82.381 39.3976C82.2987 39.4096 82.2406 39.3855 82.2067 39.3278C82.1728 39.2701 82.1486 39.2027 82.1365 39.1282C82.1244 39.0536 82.1317 38.9742 82.1534 38.8949C82.1777 38.8131 82.2067 38.7554 82.2406 38.7217C82.2067 38.7217 82.1559 38.7602 82.0929 38.8347C82.0275 38.9093 81.967 38.9959 81.9089 39.0945C81.8508 39.1931 81.8 39.2893 81.7612 39.3807C81.7201 39.4745 81.6934 39.5419 81.6813 39.59C81.5869 39.5563 81.4344 39.4048 81.3884 39.2316C81.3424 39.0584 81.0591 38.4499 81.018 38.2647C80.9768 38.0795 80.7371 38.1973 80.4999 38.2166C80.8703 34.1662 83.5286 29.6853 83.7538 28.6606C83.8191 28.3648 83.8796 28.1628 83.8675 28.0353C83.7634 28.1171 82.8192 28.8507 82.5989 29.4279C82.4585 29.3461 82.1994 29.1778 82.0469 29.1032C81.8944 29.0286 81.7491 28.9493 81.6087 28.8699C81.4683 28.7881 81.3376 28.6991 81.2141 28.6005C81.0906 28.5019 80.9889 28.3888 80.909 28.2614C81.1197 27.8669 81.4417 27.4652 81.8799 27.054C82.3181 26.6427 82.8241 26.2482 83.4003 25.873C83.9765 25.4978 84.606 25.149 85.2887 24.8315C85.9714 24.514 86.659 24.2495 87.3514 24.0402C88.0438 23.8309 88.7241 23.6818 89.3899 23.588C90.0533 23.4966 90.6634 23.4918 91.2178 23.5784C91.7722 23.665 92.2443 23.8502 92.6341 24.134C93.0239 24.4178 93.295 24.8195 93.4476 25.3414C93.6098 26.0606 93.6461 26.7461 93.5517 27.4003C93.4573 28.0545 93.2636 28.6654 92.9658 29.2331C92.668 29.8007 92.2903 30.3154 91.8279 30.7796C91.3679 31.2438 90.8546 31.6479 90.2881 31.9967C89.7216 32.343 89.1188 32.6244 88.4772 32.8385C87.8453 33.0502 87.2037 33.1849 86.5621 33.2426ZM86.3225 26.9818C86.4145 27.0852 86.4968 27.1959 86.567 27.3113C86.6251 27.4051 86.6808 27.5085 86.734 27.624C86.7873 27.7394 86.8188 27.8501 86.8309 27.9535C86.6203 28.1844 86.4338 28.4442 86.2716 28.7256C86.1094 29.0094 85.9496 29.3052 85.7995 29.6107C85.647 29.9186 85.4969 30.2216 85.3444 30.5223C85.1918 30.8229 85.1725 30.96 84.9982 31.227C85.4872 31.0995 86.1578 30.9023 86.6784 30.7099C87.1965 30.5199 87.6976 30.3082 88.1818 30.0749C88.666 29.844 89.1163 29.5891 89.5376 29.31C89.9564 29.031 90.3099 28.7328 90.5956 28.4153C90.8813 28.0978 91.0919 27.7611 91.2251 27.4075C91.3582 27.0539 91.3849 26.686 91.305 26.3035C91.0943 26.0726 90.7748 25.9355 90.3438 25.8946C89.9129 25.8537 89.4601 25.8706 88.988 25.9475C88.5159 26.0221 88.0632 26.14 87.6322 26.2939C87.1965 26.4575 86.5549 26.8086 86.3225 26.9818Z" fill="#D7E51C"/>
<path d="M95.8953 32.3695C95.6967 32.8674 95.4692 33.4591 95.2125 34.1422C94.9559 34.8253 94.7235 35.5083 94.5128 36.1914C94.3022 36.8745 94.1448 37.5119 94.0407 38.1036C93.9366 38.6953 93.9366 39.1354 94.0407 39.4241C94.1448 39.5756 94.2974 39.679 94.4959 39.7367C94.4499 39.8522 94.2974 39.8834 94.0407 39.8329C93.7841 39.78 93.4839 39.6886 93.1401 39.5539C92.7963 39.4216 92.4453 39.2581 92.0918 39.0681C91.7359 38.8781 91.443 38.7001 91.2081 38.5389C91.4648 38.4932 91.5616 38.409 91.4962 38.2864C91.4333 38.1637 91.2372 37.9593 90.9103 37.6706C91.1428 37.382 91.3146 37.1391 91.4188 36.9419C92.7576 34.3827 93.5444 31.9462 94.0238 30.4526C94.065 30.3227 94.1109 30.1928 94.1812 30.0701C94.2514 29.9475 94.3627 29.8248 94.5128 29.6973C94.6291 29.6733 94.6968 29.6829 94.7138 29.7238C94.7307 29.7647 94.7477 29.8056 94.7671 29.8465C94.784 29.8873 94.8203 29.9138 94.8712 29.9258C94.9244 29.9379 95.0382 29.909 95.2125 29.8392C95.457 30.176 95.658 30.455 95.8154 30.6811C95.9727 30.9072 96.0914 31.1188 96.1737 31.316C96.1156 31.4098 96.0841 31.5109 96.0768 31.6191C96.072 31.7297 96.0381 31.8308 95.98 31.9222C95.9824 31.9174 96.0139 32.0665 95.8953 32.3695ZM99.1733 25.6878C98.9772 25.6542 98.8901 25.6926 98.9119 25.8009C98.9337 25.9091 99.0257 26.1087 99.183 26.395C98.9458 26.5441 98.7472 26.6908 98.5875 26.8375C98.4277 26.9842 98.28 27.131 98.1396 27.2777C97.9991 27.4244 97.6263 27.8549 97.481 28.0185C97.3358 28.182 97.1615 28.36 96.9581 28.5548C96.9121 28.5043 96.8903 28.4418 96.8952 28.3648C96.9 28.2879 96.9218 28.2109 96.9629 28.1315C97.0041 28.0522 97.0525 27.9824 97.1082 27.9199C97.1639 27.8573 97.2123 27.814 97.2559 27.79C97.2026 27.7635 97.1324 27.778 97.0428 27.8357C96.9533 27.8934 96.8419 27.968 96.7136 28.057C96.5828 28.146 96.4327 28.235 96.2608 28.3239C96.0889 28.4129 95.9001 28.4659 95.6943 28.4851C95.4885 28.5043 95.2658 28.4755 95.0261 28.4009C94.7864 28.3264 94.3095 27.9463 94.3676 27.8838C94.4572 27.7828 94.5831 27.6288 94.7404 27.422C94.8978 27.2151 95.3069 26.6956 95.5055 26.4142C95.704 26.1328 95.8856 25.8538 96.0526 25.5772C96.2197 25.3006 96.3601 25.036 96.4763 24.7859C96.5925 24.5357 96.6482 24.3313 96.6482 24.1749C96.5974 24.0162 96.5102 23.9007 96.3867 23.8262C96.4424 23.7588 96.5974 23.7853 96.8467 23.9056C97.0961 24.0258 97.3721 24.187 97.6699 24.389C97.9677 24.591 98.2606 24.8147 98.5463 25.0601C98.832 25.3102 99.0426 25.5171 99.1733 25.6878Z" fill="#D7E51C"/>
<path d="M105.855 38.0988C105.926 38.1926 105.959 38.3104 105.959 38.4547C105.959 38.599 105.993 38.6953 106.064 38.741C105.26 38.6496 104.579 38.5942 104.025 38.575C103.471 38.5582 102.991 38.563 102.582 38.5918C102.173 38.6207 101.815 38.664 101.507 38.7217C101.197 38.7794 100.88 38.8444 100.553 38.9117C100.239 38.9815 99.9698 39.0416 99.7495 39.0945C99.5268 39.1474 99.3307 39.1907 99.1539 39.2244C98.9796 39.2581 98.8223 39.2869 98.6818 39.311C98.5414 39.335 98.401 39.3519 98.263 39.3639C98.2049 39.3759 98.1589 39.3831 98.1226 39.3904C98.0887 39.3952 98.0524 39.4 98.0185 39.4C97.8442 39.424 97.665 39.4024 97.4859 39.3399C97.3043 39.2773 97.1542 39.1955 97.0307 39.0969C96.9072 38.9983 96.8273 38.9069 96.7862 38.8179C96.745 38.7313 96.7765 38.6712 96.883 38.6351C97.2099 38.6351 97.3939 38.6231 97.435 38.6015C97.4762 38.5774 97.4616 38.5269 97.3914 38.4451C97.3212 38.3633 97.2486 38.2431 97.1735 38.0795C97.0985 37.9184 97.113 37.6971 97.2171 37.4181C97.251 37.4181 97.3842 37.394 97.6117 37.3483C97.8393 37.3026 98.1202 37.2473 98.4518 37.1824C98.7835 37.1198 99.1515 37.0501 99.5534 36.9731C99.9553 36.8986 100.355 36.8264 100.752 36.7566C101.149 36.6869 101.522 36.6244 101.87 36.5666C102.219 36.5089 102.512 36.468 102.744 36.444C102.861 36.4319 103.018 36.4271 103.216 36.4271C103.415 36.4271 103.611 36.4271 103.802 36.4271C103.994 36.4271 104.17 36.4367 104.328 36.4536C104.485 36.4704 104.582 36.4921 104.616 36.5137C104.826 36.6652 105.035 36.8913 105.245 37.192C105.453 37.4975 105.657 37.7981 105.855 38.0988ZM107.01 25.849C107.337 26.7293 107.519 27.5831 107.553 28.4129C107.586 29.2403 107.497 30.0196 107.281 30.7508C107.066 31.4796 106.734 32.153 106.284 32.7664C105.836 33.3797 105.296 33.9137 104.667 34.3659C104.27 34.6545 103.805 34.8637 103.267 34.9912C102.73 35.1187 102.168 35.1475 101.58 35.0778C100.992 35.008 100.41 34.8277 99.8391 34.539C99.2677 34.2504 98.7496 33.8271 98.2824 33.2715C98.0838 32.9251 98.0112 32.4633 98.0645 31.8909C98.1177 31.3184 98.2485 30.6979 98.4591 30.0316C98.6697 29.3654 98.9457 28.6943 99.2895 28.0161C99.6333 27.3378 100.009 26.7269 100.418 26.1833C100.65 26.1256 100.89 26.0678 101.134 26.0101C101.379 25.9524 101.619 25.8947 101.851 25.8369C101.885 25.594 102.008 25.3944 102.219 25.238C102.43 25.0817 102.694 24.9662 103.015 24.8917C103.335 24.8171 103.689 24.781 104.073 24.7883C104.458 24.7931 104.836 24.8388 105.211 24.9181C105.584 24.9999 105.93 25.1178 106.252 25.2741C106.57 25.4232 106.824 25.6181 107.01 25.849ZM103.408 26.9433C103.081 27.1526 102.744 27.4364 102.393 27.7948C102.045 28.1532 101.735 28.6005 101.466 29.1321C101.197 29.666 100.992 30.2914 100.846 31.0082C100.701 31.7273 100.674 32.5499 100.766 33.4759C101.151 33.5793 101.534 33.5721 101.912 33.4495C102.289 33.3268 102.652 33.1272 102.996 32.8506C103.34 32.5716 103.657 32.2276 103.95 31.8163C104.241 31.405 104.495 30.9601 104.71 30.479C104.926 29.998 105.098 29.4977 105.226 28.9758C105.354 28.4538 105.424 27.9439 105.437 27.446C105.437 27.3426 105.323 27.2512 105.095 27.1766C104.868 27.1021 104.623 27.0371 104.362 26.9866C104.1 26.9337 103.865 26.9049 103.662 26.9C103.456 26.8952 103.371 26.9097 103.408 26.9433Z" fill="#D7E51C"/>
</g>
<defs>
<filter id="filter0_d_54_120" x="0" y="0" width="116" height="50" filterUnits="userSpaceOnUse" color-interpolation-filters="sRGB">
<feFlood flood-opacity="0" result="BackgroundImageFix"/>
<feColorMatrix in="SourceAlpha" type="matrix" values="0 0 0 0 0 0 0 0 0 0 0 0 0 0 0 0 0 0 127 0" result="hardAlpha"/>
<feOffset dy="4"/>
<feGaussianBlur stdDeviation="2"/>
<feComposite in2="hardAlpha" operator="out"/>
<feColorMatrix type="matrix" values="0 0 0 0 0 0 0 0 0 0 0 0 0 0 0 0 0 0 0.25 0"/>
<feBlend mode="normal" in2="BackgroundImageFix" result="effect1_dropShadow_54_120"/>
<feBlend mode="normal" in="SourceGraphic" in2="effect1_dropShadow_54_120" result="shape"/>
</filter>
<clipPath id="clip0_54_120">
<rect width="108" height="42" fill="white" transform="translate(4)"/>
</clipPath>
</defs>
</svg>
