<svg width="108" height="37" viewBox="0 0 108 37" fill="none" xmlns="http://www.w3.org/2000/svg">
<g clip-path="url(#clip0_54_101)">
<path d="M36.8218 24.2675L30.4117 12.9393C29.4681 11.2711 27.4142 10.5119 25.6689 11.289C24.8317 11.6597 24.2145 12.3013 23.8491 13.0534L13.4233 31.3645C12.5152 32.9614 12.8203 35.0324 14.2534 36.1838C16.0555 37.631 18.6628 37.0749 19.766 35.1393L24.1754 27.3936C25.4915 25.0838 28.8083 25.0873 30.1173 27.4007C31.1248 29.183 32.0364 31.4999 34.5728 30.6908C37.3823 29.7925 38.1982 26.7021 36.8218 24.2675Z" fill="#D4D92E"/>
<path d="M0.655473 12.7325L7.06559 24.0606C8.00919 25.7288 10.0631 26.4881 11.8084 25.711C12.6456 25.3403 13.2629 24.6987 13.6282 23.9465L24.0504 5.63546C24.9586 4.03855 24.6535 1.96754 23.2204 0.816196C21.4183 -0.63101 18.811 -0.0749409 17.7113 1.86061L13.3019 9.60637C11.9858 11.9162 8.66901 11.9126 7.36002 9.59924C6.35257 7.81697 5.44089 5.50001 2.90451 6.30916C0.0914394 7.20743 -0.724458 10.2979 0.655473 12.7325Z" fill="#D4D92E"/>
<path d="M52.2316 18.7388L55.4633 10.3764L59.1277 10.4049L53.4271 23.2836L50.873 23.2658L45.3958 10.298L49.0603 10.3265L52.2316 18.7388Z" fill="white"/>
<path d="M64.6156 6.93303C64.612 7.51762 64.4098 8.00952 64.0125 8.40162C63.6152 8.79372 63.1257 8.98977 62.5439 8.98621C61.9621 8.98264 61.4726 8.77947 61.0824 8.38024C60.6922 7.98101 60.4971 7.4891 60.5042 6.90095C60.5077 6.31636 60.7099 5.83515 61.1072 5.45731C61.5045 5.06521 61.9941 4.86916 62.5758 4.87629C63.1576 4.87985 63.6471 5.08303 64.0374 5.48226C64.4276 5.8601 64.6227 6.34488 64.6156 6.93303ZM64.1863 10.4441L64.087 23.3905L60.7525 23.3656L60.8518 10.4192L64.1863 10.4441Z" fill="white"/>
<path d="M75.4138 20.0791L76.3857 22.724C75.3073 23.4298 74.0374 23.7755 72.5723 23.7648C71.0895 23.7541 69.9756 23.3121 69.2271 22.4459C68.4751 21.5762 68.1097 20.3036 68.1204 18.6247L68.1629 13.2815L66.0593 13.2637L66.0806 10.4619L68.209 10.4798L68.2445 5.89575L71.5542 5.9207L71.5187 10.5047L75.7721 10.5368L75.7508 13.3385L71.4975 13.3064L71.4584 18.4358C71.4478 19.9543 72.0473 20.7207 73.2605 20.7314C73.9203 20.735 74.6369 20.5175 75.4138 20.0791Z" fill="white"/>
<path d="M86.3113 20.1647L87.2833 22.8095C86.2049 23.5153 84.935 23.8611 83.4699 23.8504C81.9871 23.8397 80.8732 23.3977 80.1247 22.5315C79.3727 21.6618 79.0073 20.3892 79.0179 18.7103L79.0605 13.3671L76.9569 13.3492L76.9782 10.5475L79.1066 10.5653L79.1421 5.98132L82.4518 6.00627L82.4163 10.5903L86.6696 10.6224L86.6483 13.4241L82.395 13.392L82.356 18.5214C82.3454 20.0399 82.9449 20.8063 84.1581 20.817C84.8179 20.817 85.538 20.6031 86.3113 20.1647Z" fill="white"/>
<path d="M98.5711 12.2549L98.5817 10.7115L101.75 10.7364L101.65 23.6829L98.4824 23.6579L98.493 22.1608C97.3791 23.3549 96.0063 23.9466 94.3674 23.9359C92.5086 23.9217 90.9832 23.2622 89.7948 21.9541C88.6065 20.6459 88.0212 19.0097 88.0353 17.0457C88.0495 15.0994 88.6703 13.4954 89.8942 12.2371C91.118 10.9646 92.6434 10.3336 94.4703 10.3479C96.0808 10.3586 97.4465 10.9931 98.5711 12.2549ZM98.5817 17.1704C98.5888 16.1581 98.2482 15.2741 97.5601 14.5255C96.8861 13.7912 96.0311 13.4205 94.9918 13.4134C93.9346 13.4063 93.0655 13.7627 92.3844 14.4863C91.7175 15.2099 91.3805 16.0868 91.3699 17.117C91.3628 18.1614 91.6927 19.0525 92.3667 19.7868C93.0407 20.5211 93.8956 20.8918 94.935 20.899C95.9744 20.9061 96.8364 20.5496 97.521 19.826C98.2199 19.0846 98.5746 18.2006 98.5817 17.1704Z" fill="white"/>
<path d="M106.095 24.0928C105.542 24.0892 105.08 23.9003 104.704 23.5225C104.328 23.1482 104.144 22.6812 104.148 22.1287C104.151 21.5905 104.343 21.1414 104.726 20.7778C105.105 20.4178 105.574 20.2395 106.123 20.2431C106.645 20.2467 107.088 20.432 107.454 20.7992C107.819 21.1663 108.004 21.619 108 22.1573C107.996 22.7098 107.805 23.1732 107.432 23.5439C107.06 23.9146 106.616 24.0964 106.095 24.0928Z" fill="white"/>
<path d="M49.8336 28.8087C49.5143 28.8051 49.2554 28.6982 49.0532 28.4879C48.8474 28.274 48.7481 28.0102 48.7481 27.693C48.7517 27.3722 48.8616 27.1048 49.078 26.8981C49.2944 26.6878 49.5605 26.5844 49.8655 26.588C50.0429 26.588 50.2096 26.6272 50.3728 26.702C50.536 26.7769 50.6637 26.8731 50.7559 26.9943L50.6282 27.112C50.5431 27.005 50.4296 26.9195 50.2948 26.8553C50.16 26.7947 50.0145 26.7626 49.8655 26.7591C49.603 26.7591 49.3795 26.8446 49.1986 27.0264C49.0177 27.2046 48.929 27.4292 48.9255 27.6966C48.9219 27.9675 49.0106 28.192 49.1809 28.3738C49.3547 28.552 49.5711 28.6412 49.8336 28.6447C50.1351 28.6483 50.4012 28.5307 50.6353 28.2954L50.6389 27.7892L49.7839 27.7821V27.6181L50.8127 27.6253L50.8056 28.3631C50.5466 28.6625 50.2203 28.8123 49.8336 28.8087Z" fill="white"/>
<path d="M56.0557 28.823H55.8428L55.3001 27.9105L54.8709 27.9069L54.8638 28.8158H54.6864L54.7041 26.6593L55.3498 26.6629C55.5697 26.6664 55.7364 26.727 55.8499 26.8553C55.967 26.9765 56.0238 27.1227 56.0238 27.2938C56.0238 27.4399 55.9741 27.5683 55.8819 27.6788C55.7932 27.7893 55.6619 27.8606 55.4881 27.8926L56.0557 28.823ZM55.3498 26.834L54.878 26.8304L54.8709 27.7358L55.3001 27.7394C55.4704 27.7394 55.6016 27.7001 55.6974 27.6182C55.7896 27.5362 55.8393 27.4257 55.8393 27.2867C55.8393 27.1512 55.7967 27.0443 55.708 26.9587C55.6229 26.8767 55.5023 26.834 55.3498 26.834Z" fill="white"/>
<path d="M61.4584 28.8657H61.2633L61.0114 28.2098L60.1104 28.2027L59.8514 28.855H59.6563L60.529 26.7056H60.6247L61.4584 28.8657ZM60.9546 28.0423L60.5715 27.0228L60.1707 28.0387L60.9546 28.0423Z" fill="white"/>
<path d="M66.595 28.9049L65.2222 28.8942L65.2364 26.7412H65.4137L65.3995 28.7231L66.5985 28.7338L66.595 28.9049Z" fill="white"/>
<path d="M70.38 28.9797C70.341 28.9797 70.3056 28.9654 70.2772 28.9369C70.2488 28.9084 70.2382 28.8763 70.2382 28.8371C70.2382 28.7979 70.2523 28.7658 70.2807 28.7409C70.3091 28.7159 70.341 28.7017 70.3836 28.7017C70.4226 28.7017 70.4545 28.7159 70.4829 28.7409C70.5113 28.7658 70.5219 28.7979 70.5219 28.8371C70.5219 28.8763 70.5077 28.912 70.4794 28.9369C70.451 28.969 70.4191 28.9833 70.38 28.9797Z" fill="white"/>
<path d="M79.9261 29.0083L78.5532 28.9976L78.5674 26.8446H78.7448L78.7306 28.8265L79.9296 28.8372L79.9261 29.0083Z" fill="white"/>
<path d="M85.2365 29.0476H85.0414L84.7895 28.3917L83.8885 28.3846L83.6295 29.0369H83.4344L84.307 26.8875H84.4028L85.2365 29.0476ZM84.7363 28.2277L84.3532 27.2083L83.9488 28.2242L84.7363 28.2277Z" fill="white"/>
<path d="M89.8942 29.1188C89.5749 29.1152 89.3159 29.0083 89.1137 28.798C88.908 28.5841 88.8087 28.3203 88.8087 28.0031C88.8122 27.6823 88.9222 27.4149 89.1386 27.2046C89.355 26.9943 89.621 26.8909 89.9261 26.8945C90.1035 26.8945 90.2702 26.9337 90.4334 27.0086C90.5965 27.0834 90.7243 27.1797 90.8165 27.3009L90.6888 27.4149C90.6036 27.308 90.4901 27.2224 90.3553 27.1618C90.2205 27.1012 90.0751 27.0692 89.9261 27.0656C89.6636 27.062 89.4401 27.1511 89.2592 27.3329C89.0783 27.5112 88.9896 27.7357 88.986 28.0031C88.9825 28.274 89.0712 28.4985 89.2414 28.6768C89.4153 28.855 89.6317 28.9441 89.8942 28.9477C90.1957 28.9512 90.4617 28.8336 90.6959 28.5984L90.6994 28.0922L89.8445 28.0851V27.9175L90.8732 27.9247L90.8661 28.6625C90.6036 28.9691 90.2773 29.1188 89.8942 29.1188Z" fill="white"/>
<path d="M95.6941 29.1651C95.389 29.1615 95.1301 29.051 94.9208 28.8372C94.7079 28.6162 94.6051 28.3559 94.6086 28.0494C94.6122 27.7428 94.7221 27.4791 94.935 27.2616C95.1514 27.0442 95.4139 26.9373 95.7189 26.9373C96.024 26.9408 96.2794 27.0513 96.4923 27.2688C96.7087 27.4862 96.8151 27.75 96.8115 28.0565C96.808 28.3631 96.698 28.6269 96.4816 28.8407C96.2617 29.0617 95.9992 29.1687 95.6941 29.1651ZM95.7012 28.994C95.9602 28.9976 96.1801 28.9084 96.3575 28.7267C96.5384 28.5449 96.6271 28.3203 96.6306 28.0601C96.6342 27.7963 96.5455 27.5753 96.3681 27.3864C96.1943 27.201 95.9779 27.1084 95.7189 27.1084C95.46 27.1084 95.2436 27.1975 95.0627 27.3793C94.8818 27.5646 94.7931 27.7856 94.7895 28.0458C94.786 28.306 94.8747 28.5306 95.052 28.716C95.2223 28.8978 95.4422 28.9904 95.7012 28.994Z" fill="white"/>
<path d="M101.161 29.2078C101.005 29.2078 100.866 29.1686 100.742 29.0866C100.618 29.0082 100.522 28.8977 100.462 28.7516L100.604 28.6553C100.657 28.773 100.731 28.8692 100.827 28.9334C100.923 29.0011 101.033 29.0332 101.157 29.0367C101.303 29.0367 101.42 28.9975 101.512 28.9191C101.604 28.8407 101.65 28.7409 101.65 28.6233C101.65 28.5413 101.629 28.4735 101.583 28.413C101.537 28.3559 101.466 28.3025 101.373 28.2525C101.313 28.2205 101.239 28.1884 101.154 28.1492C101.044 28.0993 100.976 28.0672 100.941 28.0494C100.696 27.9246 100.575 27.7535 100.579 27.5325C100.579 27.3721 100.639 27.2367 100.749 27.1333C100.863 27.0263 101.012 26.9764 101.196 26.9764C101.452 26.98 101.654 27.0869 101.799 27.3008L101.664 27.4077C101.544 27.2331 101.388 27.144 101.196 27.1404C101.068 27.1404 100.966 27.1761 100.884 27.2438C100.802 27.3151 100.763 27.4077 100.76 27.5218C100.76 27.668 100.845 27.7892 101.015 27.8818C101.061 27.9068 101.139 27.946 101.249 27.9959C101.37 28.0494 101.452 28.0886 101.494 28.11C101.725 28.2383 101.838 28.4058 101.835 28.6126C101.835 28.7872 101.767 28.9298 101.636 29.0403C101.512 29.1544 101.352 29.2078 101.161 29.2078Z" fill="white"/>
</g>
<defs>
<clipPath id="clip0_54_101">
<rect width="108" height="37" fill="white"/>
</clipPath>
</defs>
</svg>
