<svg width="492" height="521" viewBox="0 0 492 521" fill="none" xmlns="http://www.w3.org/2000/svg">
<path d="M14.4339 254.239L14.4338 254.239C-12.8024 206.111 3.41446 145.395 58.698 127.776L58.6993 127.776C71.1534 123.795 81.5022 123.689 90.3325 126.222C99.1723 128.757 106.623 133.975 113.21 140.859C123.677 151.797 131.781 166.711 139.744 181.365C141.869 185.276 143.984 189.167 146.131 192.96C172.904 240.304 240.793 240.387 267.733 193.131L267.734 193.13L356.058 38.0089L356.059 38.0076C377.631 0.0355602 428.761 -10.8794 464.16 17.5182C492.177 40.057 498.27 80.6923 480.392 112.089L271.583 478.766L271.558 478.811L271.536 478.857C264.398 493.65 252.235 506.195 235.854 513.488L235.854 513.488C201.64 528.744 161.305 513.874 142.782 481.099L142.782 481.099L14.4339 254.239Z" stroke="#EDEDED" stroke-width="3"/>
</svg>
