<svg width="335" height="224" viewBox="0 0 335 224" fill="none" xmlns="http://www.w3.org/2000/svg">
<path d="M113.404 224C115.519 224 117.234 222.285 117.234 220.169C117.234 218.053 115.519 216.338 113.404 216.338C111.288 216.338 109.573 218.053 109.573 220.169C109.573 222.285 111.288 224 113.404 224Z" fill="#C8DA45"/>
<path d="M60.1194 224C62.2351 224 63.9501 222.285 63.9501 220.169C63.9501 218.053 62.2351 216.338 60.1194 216.338C58.0038 216.338 56.2887 218.053 56.2887 220.169C56.2887 222.285 58.0038 224 60.1194 224Z" fill="#C8DA45"/>
<path d="M3.8307 224C5.94634 224 7.6614 222.285 7.6614 220.169C7.6614 218.053 5.94634 216.338 3.8307 216.338C1.71506 216.338 0 218.053 0 220.169C0 222.285 1.71506 224 3.8307 224Z" fill="#C8DA45"/>
<path d="M330.417 224C332.532 224 334.248 222.285 334.248 220.169C334.248 218.053 332.532 216.338 330.417 216.338C328.301 216.338 326.586 218.053 326.586 220.169C326.586 222.285 328.301 224 330.417 224Z" fill="#C8DA45"/>
<path d="M277.132 224C279.248 224 280.963 222.285 280.963 220.169C280.963 218.053 279.248 216.338 277.132 216.338C275.017 216.338 273.302 218.053 273.302 220.169C273.302 222.285 275.017 224 277.132 224Z" fill="#C8DA45"/>
<path d="M220.844 224C222.959 224 224.674 222.285 224.674 220.169C224.674 218.053 222.959 216.338 220.844 216.338C218.728 216.338 217.013 218.053 217.013 220.169C217.013 222.285 218.728 224 220.844 224Z" fill="#C8DA45"/>
<path d="M167.559 224C169.675 224 171.39 222.285 171.39 220.169C171.39 218.053 169.675 216.338 167.559 216.338C165.444 216.338 163.729 218.053 163.729 220.169C163.729 222.285 165.444 224 167.559 224Z" fill="#C8DA45"/>
<path d="M113.404 7.82839C115.519 7.82839 117.234 6.11333 117.234 3.99769C117.234 1.88206 115.519 0.166992 113.404 0.166992C111.288 0.166992 109.573 1.88206 109.573 3.99769C109.573 6.11333 111.288 7.82839 113.404 7.82839Z" fill="#C8DA45"/>
<path d="M113.404 62.4051C115.519 62.4051 117.234 60.69 117.234 58.5744C117.234 56.4587 115.519 54.7437 113.404 54.7437C111.288 54.7437 109.573 56.4587 109.573 58.5744C109.573 60.69 111.288 62.4051 113.404 62.4051Z" fill="#C8DA45"/>
<path d="M113.404 113.991C115.519 113.991 117.234 112.276 117.234 110.161C117.234 108.045 115.519 106.33 113.404 106.33C111.288 106.33 109.573 108.045 109.573 110.161C109.573 112.276 111.288 113.991 113.404 113.991Z" fill="#C8DA45"/>
<path d="M113.404 168.568C115.519 168.568 117.234 166.853 117.234 164.737C117.234 162.621 115.519 160.906 113.404 160.906C111.288 160.906 109.573 162.621 109.573 164.737C109.573 166.853 111.288 168.568 113.404 168.568Z" fill="#C8DA45"/>
<path d="M60.1194 7.82839C62.2351 7.82839 63.9501 6.11333 63.9501 3.99769C63.9501 1.88206 62.2351 0.166992 60.1194 0.166992C58.0038 0.166992 56.2887 1.88206 56.2887 3.99769C56.2887 6.11333 58.0038 7.82839 60.1194 7.82839Z" fill="#C8DA45"/>
<path d="M60.1194 62.4051C62.2351 62.4051 63.9501 60.69 63.9501 58.5744C63.9501 56.4587 62.2351 54.7437 60.1194 54.7437C58.0038 54.7437 56.2887 56.4587 56.2887 58.5744C56.2887 60.69 58.0038 62.4051 60.1194 62.4051Z" fill="#C8DA45"/>
<path d="M60.1194 113.991C62.2351 113.991 63.9501 112.276 63.9501 110.161C63.9501 108.045 62.2351 106.33 60.1194 106.33C58.0038 106.33 56.2887 108.045 56.2887 110.161C56.2887 112.276 58.0038 113.991 60.1194 113.991Z" fill="#C8DA45"/>
<path d="M60.1194 168.568C62.2351 168.568 63.9501 166.853 63.9501 164.737C63.9501 162.621 62.2351 160.906 60.1194 160.906C58.0038 160.906 56.2887 162.621 56.2887 164.737C56.2887 166.853 58.0038 168.568 60.1194 168.568Z" fill="#C8DA45"/>
<path d="M3.8307 7.82839C5.94634 7.82839 7.6614 6.11333 7.6614 3.99769C7.6614 1.88206 5.94634 0.166992 3.8307 0.166992C1.71506 0.166992 0 1.88206 0 3.99769C0 6.11333 1.71506 7.82839 3.8307 7.82839Z" fill="#C8DA45"/>
<path d="M3.8307 62.4051C5.94634 62.4051 7.6614 60.69 7.6614 58.5744C7.6614 56.4587 5.94634 54.7437 3.8307 54.7437C1.71506 54.7437 0 56.4587 0 58.5744C0 60.69 1.71506 62.4051 3.8307 62.4051Z" fill="#C8DA45"/>
<path d="M3.8307 113.991C5.94634 113.991 7.6614 112.276 7.6614 110.161C7.6614 108.045 5.94634 106.33 3.8307 106.33C1.71506 106.33 0 108.045 0 110.161C0 112.276 1.71506 113.991 3.8307 113.991Z" fill="#C8DA45"/>
<path d="M3.8307 168.568C5.94634 168.568 7.6614 166.853 7.6614 164.737C7.6614 162.621 5.94634 160.906 3.8307 160.906C1.71506 160.906 0 162.621 0 164.737C0 166.853 1.71506 168.568 3.8307 168.568Z" fill="#C8DA45"/>
<path d="M330.417 7.82839C332.532 7.82839 334.248 6.11333 334.248 3.99769C334.248 1.88206 332.532 0.166992 330.417 0.166992C328.301 0.166992 326.586 1.88206 326.586 3.99769C326.586 6.11333 328.301 7.82839 330.417 7.82839Z" fill="#C8DA45"/>
<path d="M330.417 62.4051C332.532 62.4051 334.248 60.69 334.248 58.5744C334.248 56.4587 332.532 54.7437 330.417 54.7437C328.301 54.7437 326.586 56.4587 326.586 58.5744C326.586 60.69 328.301 62.4051 330.417 62.4051Z" fill="#C8DA45"/>
<path d="M330.417 113.991C332.532 113.991 334.248 112.276 334.248 110.161C334.248 108.045 332.532 106.33 330.417 106.33C328.301 106.33 326.586 108.045 326.586 110.161C326.586 112.276 328.301 113.991 330.417 113.991Z" fill="#C8DA45"/>
<path d="M330.417 168.568C332.532 168.568 334.248 166.853 334.248 164.737C334.248 162.621 332.532 160.906 330.417 160.906C328.301 160.906 326.586 162.621 326.586 164.737C326.586 166.853 328.301 168.568 330.417 168.568Z" fill="#C8DA45"/>
<path d="M277.132 7.82839C279.248 7.82839 280.963 6.11333 280.963 3.99769C280.963 1.88206 279.248 0.166992 277.132 0.166992C275.017 0.166992 273.302 1.88206 273.302 3.99769C273.302 6.11333 275.017 7.82839 277.132 7.82839Z" fill="#C8DA45"/>
<path d="M277.132 62.4051C279.248 62.4051 280.963 60.69 280.963 58.5744C280.963 56.4587 279.248 54.7437 277.132 54.7437C275.017 54.7437 273.302 56.4587 273.302 58.5744C273.302 60.69 275.017 62.4051 277.132 62.4051Z" fill="#C8DA45"/>
<path d="M277.132 113.991C279.248 113.991 280.963 112.276 280.963 110.161C280.963 108.045 279.248 106.33 277.132 106.33C275.017 106.33 273.302 108.045 273.302 110.161C273.302 112.276 275.017 113.991 277.132 113.991Z" fill="#C8DA45"/>
<path d="M277.132 168.568C279.248 168.568 280.963 166.853 280.963 164.737C280.963 162.621 279.248 160.906 277.132 160.906C275.017 160.906 273.302 162.621 273.302 164.737C273.302 166.853 275.017 168.568 277.132 168.568Z" fill="#C8DA45"/>
<path d="M220.844 7.82839C222.959 7.82839 224.674 6.11333 224.674 3.99769C224.674 1.88206 222.959 0.166992 220.844 0.166992C218.728 0.166992 217.013 1.88206 217.013 3.99769C217.013 6.11333 218.728 7.82839 220.844 7.82839Z" fill="#C8DA45"/>
<path d="M220.844 62.4051C222.959 62.4051 224.674 60.69 224.674 58.5744C224.674 56.4587 222.959 54.7437 220.844 54.7437C218.728 54.7437 217.013 56.4587 217.013 58.5744C217.013 60.69 218.728 62.4051 220.844 62.4051Z" fill="#C8DA45"/>
<path d="M220.844 113.991C222.959 113.991 224.674 112.276 224.674 110.161C224.674 108.045 222.959 106.33 220.844 106.33C218.728 106.33 217.013 108.045 217.013 110.161C217.013 112.276 218.728 113.991 220.844 113.991Z" fill="#C8DA45"/>
<path d="M220.844 168.568C222.959 168.568 224.674 166.853 224.674 164.737C224.674 162.621 222.959 160.906 220.844 160.906C218.728 160.906 217.013 162.621 217.013 164.737C217.013 166.853 218.728 168.568 220.844 168.568Z" fill="#C8DA45"/>
<path d="M167.559 7.82839C169.675 7.82839 171.39 6.11333 171.39 3.99769C171.39 1.88206 169.675 0.166992 167.559 0.166992C165.444 0.166992 163.729 1.88206 163.729 3.99769C163.729 6.11333 165.444 7.82839 167.559 7.82839Z" fill="#C8DA45"/>
<path d="M167.559 62.4051C169.675 62.4051 171.39 60.69 171.39 58.5744C171.39 56.4587 169.675 54.7437 167.559 54.7437C165.444 54.7437 163.729 56.4587 163.729 58.5744C163.729 60.69 165.444 62.4051 167.559 62.4051Z" fill="#C8DA45"/>
<path d="M167.559 113.991C169.675 113.991 171.39 112.276 171.39 110.161C171.39 108.045 169.675 106.33 167.559 106.33C165.444 106.33 163.729 108.045 163.729 110.161C163.729 112.276 165.444 113.991 167.559 113.991Z" fill="#C8DA45"/>
<path d="M167.559 168.568C169.675 168.568 171.39 166.853 171.39 164.737C171.39 162.621 169.675 160.906 167.559 160.906C165.444 160.906 163.729 162.621 163.729 164.737C163.729 166.853 165.444 168.568 167.559 168.568Z" fill="#C8DA45"/>
</svg>
