<svg width="281" height="403" viewBox="0 0 281 403" fill="none" xmlns="http://www.w3.org/2000/svg">
<g clip-path="url(#clip0_24_6455)">
<path d="M272.672 262.019L202.039 137.565C191.629 119.241 169.015 110.899 149.767 119.44C140.553 123.522 133.732 130.555 129.723 138.829L14.7917 339.997C4.75827 357.544 8.14707 380.305 23.9393 392.928C43.829 408.834 72.5341 402.712 84.6938 381.459L133.311 296.36C147.818 270.981 184.386 271.026 198.805 296.449C209.924 316.038 219.957 341.505 247.909 332.609C278.874 322.715 287.866 288.773 272.672 262.019Z" stroke="#D2D92E" stroke-miterlimit="10"/>
<path d="M-20.9785 136.012L47.7054 257.027C57.8054 274.841 79.8214 282.961 98.5373 274.642C107.485 270.671 114.13 263.838 118.028 255.785L229.77 60.1861C239.515 43.1264 236.215 21.0087 220.888 8.71857C201.552 -6.74389 173.622 -0.798496 161.839 19.8773L114.573 102.625C100.464 127.294 64.9152 127.249 50.8949 102.536C40.0862 83.5018 30.3185 58.7442 3.16388 67.396C-27.003 76.9796 -35.7518 109.99 -20.9785 136.012Z" fill="#D2D92E"/>
</g>
<defs>
<clipPath id="clip0_24_6455">
<rect width="309" height="403" fill="white" transform="translate(-28)"/>
</clipPath>
</defs>
</svg>
