<svg width="151" height="58" viewBox="0 0 151 58" fill="none" xmlns="http://www.w3.org/2000/svg">
<g clip-path="url(#clip0_53_2)">
<path d="M52.8664 34.0221L43.6661 18.1387C42.3121 15.8004 39.3638 14.7342 36.8555 15.8269C35.6572 16.3484 34.767 17.2452 34.2457 18.3015L19.2774 43.9733C17.9708 46.212 18.4142 49.1183 20.4689 50.7292C23.0584 52.7587 26.7988 51.9781 28.3829 49.2645L34.7162 38.4032C36.605 35.1647 41.3677 35.1714 43.2497 38.4165C44.6985 40.9175 46.0051 44.166 49.6439 43.03C53.672 41.7678 54.8432 37.4366 52.8664 34.0221Z" fill="#D7E51C"/>
<path d="M0.941056 17.8486L10.1414 33.732C11.4954 36.0704 14.4437 37.1366 16.952 36.0438C18.1502 35.5223 19.0405 34.6255 19.5618 33.5693L34.5301 7.89743C35.8367 5.65874 35.3933 2.75243 33.3386 1.1415C30.7491 -0.887933 27.0087 -0.107381 25.4245 2.60628L19.0913 13.4676C17.2024 16.706 12.4398 16.6994 10.5577 13.4543C9.10898 10.9532 7.80238 7.70478 4.16355 8.84074C0.132049 10.1029 -1.03576 14.4341 0.941056 17.8486Z" fill="#D7E51C"/>
<path d="M75.5728 14.5548L80.833 14.5947L72.6482 32.6503L68.9823 32.6237L61.1156 14.4485L66.3758 14.4884L70.932 26.2797L75.5728 14.5548Z" fill="white"/>
<path d="M83.6391 11.7515C82.5289 10.6454 82.5424 8.71229 83.6696 7.65605C84.8002 6.5666 86.7669 6.57989 87.8771 7.68927C88.9874 8.76211 88.9739 10.6952 87.8467 11.7847C86.7195 12.8741 84.7528 12.8608 83.6391 11.7515ZM87.955 32.7998L83.1686 32.7633L83.3108 14.6146L88.0972 14.6511L87.955 32.7998Z" fill="white"/>
<path d="M105.611 31.8665C104.074 32.8529 102.273 33.3412 100.134 33.3246C95.8927 33.2914 93.706 30.8102 93.7433 26.1169L93.8008 18.6236L90.7814 18.6004L90.8119 14.6711L93.8651 14.6943L93.9159 8.26722L98.6684 8.30375L98.6176 14.7309L104.728 14.7774L104.697 18.7067L98.5872 18.6602L98.5296 25.8545C98.5127 27.987 99.386 29.0565 101.119 29.0698C102.036 29.0764 103.089 28.7841 104.216 28.1597L105.611 31.8665Z" fill="white"/>
<path d="M145.469 31.0328C145.483 29.5348 146.711 28.3789 148.306 28.3888C149.798 28.3988 151.014 29.5746 151 31.0726C150.986 32.637 149.758 33.7929 148.265 33.783C146.671 33.773 145.455 32.6005 145.469 31.0328Z" fill="white"/>
<path d="M115.959 31.2819C117.022 30.9663 118.081 30.7338 119.114 30.591C119.659 30.5179 120.183 30.4781 120.694 30.4747L119.865 28.2726C118.741 28.897 117.685 29.1893 116.771 29.1827C115.042 29.1694 114.165 28.0965 114.182 25.9675L114.239 18.7731L120.349 18.8196L120.38 14.8903L114.27 14.8438L114.321 8.41667L109.568 8.38013L109.517 14.8072L106.464 14.784L106.434 18.7133L109.453 18.7366L109.395 26.2299C109.372 29.4384 110.384 31.6107 112.384 32.6769C112.523 32.6105 112.662 32.5407 112.804 32.4743C113.833 31.9993 114.899 31.5974 115.959 31.2819Z" fill="white"/>
<path d="M130.7 31.2254C131.137 31.4346 131.608 31.707 132.105 32.0358C132.586 32.358 133.063 32.7167 133.52 33.1054C133.591 33.1651 133.652 33.2216 133.716 33.2781C135.087 32.9094 136.299 32.1787 137.355 31.0726L137.342 32.6105C137.541 32.5407 137.748 32.4743 137.964 32.4245C138.574 32.2816 139.244 32.2185 139.941 32.2285C140.598 32.2384 141.251 32.3115 141.888 32.4444L142.023 15.053L137.477 15.0198L137.46 17.1854C135.846 15.4084 133.882 14.5282 131.574 14.5116C128.96 14.4917 126.747 15.3752 125.003 17.1588C123.26 18.9093 122.36 21.1679 122.336 23.8982C122.316 26.6284 123.145 28.9336 124.861 30.777C125.488 31.4513 126.181 31.9993 126.933 32.4278L127.596 31.6373C127.945 31.232 128.93 30.3817 130.7 31.2254ZM128.581 20.3176C129.573 19.2912 130.799 18.803 132.325 18.813C133.818 18.8229 135.037 19.3344 136.011 20.3741C136.986 21.4137 137.487 22.6493 137.477 24.0808C137.467 25.5456 136.946 26.7746 135.954 27.8009C134.962 28.8239 133.737 29.3155 132.244 29.3056C130.751 29.2956 129.533 28.7841 128.558 27.7445C127.583 26.7048 127.116 25.4692 127.126 24.0045C127.139 22.5696 127.623 21.3406 128.581 20.3176Z" fill="white"/>
<path d="M115.434 45.9064C115.729 46.8663 116.02 47.8229 116.314 48.7729C116.609 49.7261 116.954 50.6329 117.353 51.4965C117.753 52.3601 118.234 53.1473 118.795 53.8614C119.357 54.5722 120.055 55.1535 120.887 55.6019C120.904 55.7281 120.881 55.8145 120.813 55.8543C120.749 55.8942 120.657 55.9141 120.545 55.9141C120.43 55.9141 120.319 55.9075 120.204 55.8908C120.088 55.8742 119.99 55.8742 119.909 55.8908C119.875 56.1001 119.946 56.2164 120.116 56.2396C120.288 56.2629 120.478 56.2828 120.691 56.2994C120.657 56.5086 120.674 56.6648 120.738 56.7677C120.803 56.8707 120.894 57.0268 121.006 57.2361C120.224 57.8605 119.489 58.103 118.806 57.9668C118.122 57.8306 117.475 57.4553 116.873 56.8408C116.27 56.2263 115.715 55.4424 115.211 54.4892C114.706 53.5392 114.253 52.5561 113.853 51.5496C113.454 50.5432 113.102 49.5734 112.801 48.6467C112.499 47.72 112.249 46.9759 112.056 46.4146C111.829 46.8464 111.582 47.4144 111.321 48.1185C111.061 48.8227 110.81 49.5567 110.577 50.3273C110.34 51.0946 110.133 51.8419 109.954 52.5693C109.774 53.2968 109.653 53.9079 109.588 54.4061C109.473 54.4227 109.392 54.3895 109.345 54.3098C109.297 54.2301 109.263 54.1371 109.246 54.0341C109.229 53.9312 109.24 53.8216 109.27 53.7119C109.304 53.599 109.345 53.5193 109.392 53.4728C109.345 53.4728 109.274 53.5259 109.185 53.6289C109.094 53.7319 109.009 53.8514 108.928 53.9876C108.847 54.1238 108.776 54.2567 108.722 54.3829C108.664 54.5124 108.627 54.6054 108.61 54.6719C108.478 54.6254 108.265 54.4161 108.2 54.177C108.136 53.9378 107.74 53.0975 107.683 52.8417C107.625 52.586 107.29 52.7487 106.958 52.7753C107.476 47.1819 111.193 40.9939 111.508 39.579C111.599 39.1704 111.684 38.8914 111.667 38.7154C111.521 38.8283 110.201 39.8414 109.893 40.6385C109.697 40.5256 109.334 40.2931 109.121 40.1901C108.908 40.0872 108.705 39.9775 108.509 39.8679C108.312 39.755 108.129 39.6321 107.957 39.4959C107.784 39.3597 107.642 39.2036 107.53 39.0276C107.825 38.4829 108.275 37.9282 108.888 37.3602C109.5 36.7922 110.208 36.2475 111.013 35.7293C111.819 35.2112 112.699 34.7296 113.654 34.2911C114.608 33.8527 115.57 33.4873 116.538 33.1984C117.506 32.9094 118.457 32.7035 119.388 32.5739C120.315 32.4477 121.168 32.4411 121.943 32.5606C122.719 32.6802 123.379 32.936 123.924 33.3279C124.469 33.7198 124.848 34.2745 125.061 34.9953C125.288 35.9884 125.339 36.9351 125.207 37.8385C125.075 38.7419 124.804 39.5856 124.387 40.3695C123.971 41.1534 123.443 41.8642 122.796 42.5052C122.153 43.1463 121.436 43.7043 120.644 44.1859C119.852 44.6642 119.009 45.0528 118.112 45.3484C117.228 45.6407 116.331 45.8267 115.434 45.9064ZM115.099 37.2606C115.228 37.4034 115.343 37.5562 115.441 37.7156C115.522 37.8451 115.6 37.988 115.674 38.1474C115.749 38.3068 115.793 38.4596 115.81 38.6024C115.515 38.9213 115.255 39.28 115.028 39.6686C114.801 40.0606 114.578 40.4691 114.368 40.891C114.155 41.3161 113.945 41.7346 113.732 42.1498C113.518 42.565 113.491 42.7543 113.247 43.123C113.931 42.947 114.869 42.6746 115.597 42.4089C116.321 42.1465 117.022 41.8542 117.699 41.532C118.376 41.2131 119.005 40.8611 119.594 40.4758C120.18 40.0905 120.674 39.6786 121.074 39.2402C121.473 38.8017 121.767 38.3367 121.954 37.8485C122.14 37.3602 122.177 36.852 122.065 36.3239C121.771 36.005 121.324 35.8157 120.721 35.7592C120.119 35.7028 119.486 35.726 118.826 35.8323C118.166 35.9353 117.533 36.098 116.93 36.3106C116.321 36.5365 115.424 37.0214 115.099 37.2606Z" fill="#D7E51C"/>
<path d="M128.483 44.7007C128.206 45.3883 127.887 46.2054 127.529 47.1487C127.17 48.092 126.845 49.0353 126.55 49.9786C126.256 50.9219 126.036 51.8021 125.89 52.6192C125.745 53.4363 125.745 54.0441 125.89 54.4427C126.036 54.6519 126.249 54.7948 126.527 54.8745C126.462 55.0339 126.249 55.0771 125.89 55.0073C125.532 54.9343 125.112 54.808 124.631 54.622C124.15 54.4393 123.66 54.2135 123.165 53.9511C122.668 53.6887 122.258 53.4429 121.93 53.2204C122.289 53.1572 122.424 53.041 122.333 52.8716C122.245 52.7022 121.971 52.4199 121.514 52.0213C121.839 51.6227 122.079 51.2872 122.224 51.0149C124.096 47.4808 125.196 44.1161 125.867 42.0535C125.924 41.8741 125.988 41.6948 126.087 41.5254C126.185 41.356 126.341 41.1866 126.55 41.0105C126.713 40.9773 126.808 40.9906 126.831 41.0471C126.855 41.1035 126.879 41.16 126.906 41.2165C126.929 41.2729 126.98 41.3095 127.051 41.3261C127.126 41.3427 127.285 41.3028 127.529 41.2065C127.871 41.6715 128.151 42.0568 128.371 42.369C128.592 42.6812 128.757 42.9735 128.872 43.2459C128.791 43.3754 128.747 43.5149 128.737 43.6644C128.73 43.8172 128.683 43.9567 128.602 44.0829C128.605 44.0763 128.649 44.2822 128.483 44.7007ZM133.066 35.4736C132.792 35.4271 132.67 35.4802 132.701 35.6297C132.731 35.7792 132.86 36.0549 133.08 36.4501C132.748 36.656 132.471 36.8587 132.247 37.0613C132.024 37.2639 131.817 37.4665 131.621 37.6691C131.425 37.8717 130.903 38.4663 130.7 38.6921C130.497 38.918 130.254 39.1638 129.969 39.4328C129.905 39.3631 129.874 39.2767 129.881 39.1704C129.888 39.0641 129.918 38.9578 129.976 38.8482C130.034 38.7386 130.101 38.6423 130.179 38.5559C130.257 38.4696 130.325 38.4098 130.386 38.3766C130.311 38.34 130.213 38.36 130.088 38.4397C129.962 38.5194 129.807 38.6224 129.627 38.7453C129.445 38.8682 129.235 38.9911 128.994 39.114C128.754 39.2369 128.49 39.3099 128.202 39.3365C127.915 39.3631 127.603 39.3232 127.268 39.2202C126.933 39.1173 126.266 38.5925 126.347 38.5061C126.473 38.3666 126.649 38.154 126.869 37.8684C127.089 37.5827 127.661 36.8653 127.938 36.4767C128.216 36.0881 128.47 35.7028 128.703 35.3208C128.937 34.9388 129.133 34.5735 129.296 34.228C129.458 33.8826 129.536 33.6003 129.536 33.3844C129.465 33.1652 129.343 33.0057 129.17 32.9028C129.248 32.8098 129.465 32.8463 129.813 33.0124C130.162 33.1784 130.548 33.401 130.964 33.68C131.381 33.959 131.79 34.2679 132.19 34.6067C132.589 34.9521 132.884 35.2378 133.066 35.4736Z" fill="#D7E51C"/>
<path d="M142.409 52.6125C142.507 52.7421 142.554 52.9048 142.554 53.1041C142.554 53.3034 142.602 53.4363 142.7 53.4994C141.576 53.3732 140.625 53.2968 139.85 53.2702C139.075 53.2469 138.405 53.2536 137.832 53.2934C137.26 53.3333 136.759 53.3931 136.33 53.4728C135.896 53.5525 135.453 53.6422 134.996 53.7352C134.556 53.8315 134.18 53.9146 133.872 53.9876C133.561 54.0607 133.286 54.1205 133.039 54.167C132.796 54.2135 132.576 54.2534 132.379 54.2866C132.183 54.3198 131.987 54.343 131.794 54.3596C131.712 54.3762 131.648 54.3862 131.597 54.3962C131.55 54.4028 131.499 54.4095 131.452 54.4095C131.208 54.4427 130.958 54.4128 130.707 54.3264C130.453 54.2401 130.243 54.1271 130.071 53.991C129.898 53.8548 129.786 53.7286 129.729 53.6057C129.671 53.4861 129.715 53.403 129.864 53.3532C130.321 53.3532 130.578 53.3366 130.636 53.3067C130.694 53.2735 130.673 53.2038 130.575 53.0908C130.477 52.9779 130.375 52.8118 130.27 52.586C130.166 52.3634 130.186 52.0578 130.331 51.6726C130.379 51.6726 130.565 51.6393 130.883 51.5762C131.201 51.5131 131.594 51.4367 132.058 51.347C132.521 51.2607 133.036 51.1644 133.598 51.0581C134.16 50.9551 134.718 50.8555 135.273 50.7591C135.829 50.6628 136.35 50.5765 136.837 50.4967C137.325 50.417 137.734 50.3606 138.059 50.3273C138.222 50.3107 138.442 50.3041 138.719 50.3041C138.997 50.3041 139.271 50.3041 139.538 50.3041C139.806 50.3041 140.053 50.3174 140.273 50.3406C140.493 50.3639 140.628 50.3938 140.676 50.4237C140.97 50.6329 141.261 50.9451 141.556 51.3603C141.847 51.7822 142.131 52.1973 142.409 52.6125ZM144.024 35.6961C144.481 36.9118 144.734 38.0909 144.782 39.2369C144.829 40.3795 144.704 41.4556 144.403 42.4654C144.101 43.4718 143.638 44.4018 143.008 45.2488C142.382 46.0958 141.627 46.8331 140.747 47.4576C140.192 47.8561 139.542 48.1451 138.79 48.3212C138.039 48.4972 137.254 48.5371 136.431 48.4407C135.609 48.3444 134.796 48.0953 133.997 47.6967C133.198 47.2981 132.474 46.7136 131.821 45.9463C131.543 45.468 131.442 44.8303 131.516 44.0397C131.591 43.2492 131.773 42.3923 132.068 41.4722C132.362 40.5522 132.748 39.6255 133.229 38.6888C133.71 37.7522 134.234 36.9085 134.806 36.1578C135.131 36.0781 135.466 35.9984 135.808 35.9187C136.15 35.839 136.485 35.7593 136.81 35.6795C136.858 35.3441 137.03 35.0684 137.325 34.8525C137.619 34.6366 137.988 34.4772 138.438 34.3742C138.885 34.2712 139.379 34.2214 139.918 34.2314C140.456 34.238 140.984 34.3011 141.509 34.4107C142.03 34.5237 142.514 34.6864 142.964 34.9023C143.407 35.1082 143.763 35.3773 144.024 35.6961ZM138.987 37.2074C138.53 37.4964 138.059 37.8883 137.568 38.3832C137.081 38.8781 136.648 39.4959 136.272 40.23C135.896 40.9674 135.609 41.831 135.405 42.8208C135.202 43.8139 135.165 44.9498 135.294 46.2286C135.832 46.3714 136.367 46.3615 136.895 46.1921C137.423 46.0227 137.931 45.747 138.411 45.365C138.892 44.9797 139.335 44.5048 139.745 43.9368C140.151 43.3688 140.507 42.7543 140.808 42.09C141.109 41.4257 141.349 40.7349 141.529 40.0141C141.708 39.2933 141.806 38.5892 141.823 37.9016C141.823 37.7588 141.664 37.6326 141.346 37.5296C141.028 37.4266 140.686 37.337 140.32 37.2672C139.955 37.1941 139.626 37.1543 139.342 37.1476C139.054 37.141 138.936 37.1609 138.987 37.2074Z" fill="#D7E51C"/>
</g>
<defs>
<clipPath id="clip0_53_2">
<rect width="151" height="58" fill="white"/>
</clipPath>
</defs>
</svg>
