<svg width="159" height="55" viewBox="0 0 159 55" fill="none" xmlns="http://www.w3.org/2000/svg">
<g clip-path="url(#clip0_24_6463)">
<path d="M54.2099 35.5515L44.7728 18.9559C43.3836 16.512 40.3597 15.3997 37.7902 16.5381C36.5577 17.0812 35.649 18.0212 35.1111 19.123L19.762 45.9485C18.4251 48.288 18.8742 51.322 20.9841 53.0087C23.6372 55.1288 27.4757 54.3142 29.0999 51.4787L35.5915 40.1312C37.5291 36.7473 42.4122 36.7526 44.3393 40.1417C45.8225 42.7527 47.1647 46.147 50.8988 44.9616C55.035 43.6456 56.2362 39.1181 54.2099 35.5515Z" fill="#D4D92E"/>
<path d="M0.965579 18.653L10.4027 35.2486C11.7919 37.6925 14.8157 38.8048 17.3852 37.6664C18.6177 37.1233 19.5265 36.1833 20.0644 35.0815L35.4082 8.25596C36.7452 5.9165 36.296 2.8825 34.1861 1.19579C31.5331 -0.924346 27.6945 -0.109712 26.0755 2.72584L19.5839 14.0733C17.6463 17.4572 12.7633 17.4519 10.8362 14.0628C9.35297 11.4518 8.01077 8.05752 4.27666 9.24292C0.135196 10.5589 -1.06599 15.0864 0.965579 18.653Z" fill="#D4D92E"/>
<path d="M76.8966 27.4521L81.6543 15.2013L87.0492 15.2431L78.6566 34.1102L74.8964 34.0841L66.8328 15.0864L72.2276 15.1282L76.8966 27.4521Z" fill="white"/>
<path d="M95.1284 10.1568C95.1232 11.0132 94.8255 11.7339 94.2406 12.3083C93.6557 12.8827 92.935 13.1699 92.0785 13.1647C91.222 13.1595 90.5013 12.8618 89.9268 12.277C89.3523 11.6921 89.0651 10.9715 89.0755 10.1098C89.0808 9.25342 89.3784 8.54845 89.9634 7.99491C90.5483 7.42049 91.269 7.13328 92.1255 7.14372C92.982 7.14894 93.7027 7.4466 94.2772 8.03147C94.8517 8.585 95.1389 9.29519 95.1284 10.1568ZM94.4965 15.3005L94.3503 34.2669L89.4411 34.2303L89.5873 15.264L94.4965 15.3005Z" fill="white"/>
<path d="M111.026 29.4156L112.457 33.2904C110.869 34.3243 108.999 34.8309 106.843 34.8152C104.66 34.7995 103.02 34.152 101.918 32.883C100.811 31.6089 100.273 29.7446 100.288 27.285L100.351 19.4572L97.254 19.4311L97.2854 15.3266L100.419 15.3527L100.471 8.63721L105.344 8.67377L105.291 15.3893L111.553 15.4363L111.522 19.5408L105.26 19.4938L105.203 27.0083C105.187 29.2329 106.07 30.3556 107.856 30.3713C108.827 30.3765 109.882 30.0579 111.026 29.4156Z" fill="white"/>
<path d="M127.069 29.541L128.5 33.4157C126.913 34.4496 125.043 34.9562 122.886 34.9405C120.703 34.9249 119.063 34.2773 117.961 33.0084C116.854 31.7342 116.316 29.8699 116.332 27.4104L116.395 19.5826L113.298 19.5565L113.329 15.4519L116.462 15.4781L116.515 8.76255L121.387 8.7991L121.335 15.5146L127.597 15.5616L127.566 19.6661L121.304 19.6191L121.246 27.1336C121.231 29.3582 122.113 30.4809 123.899 30.4966C124.871 30.4966 125.931 30.1833 127.069 29.541Z" fill="white"/>
<path d="M145.118 17.9533L145.134 15.6922L149.798 15.7287L149.652 34.6951L144.988 34.6585L145.004 32.4653C143.364 34.2147 141.343 35.0815 138.93 35.0658C136.193 35.045 133.947 34.0789 132.198 32.1624C130.448 30.2459 129.587 27.849 129.608 24.9717C129.628 22.1205 130.542 19.7706 132.344 17.9272C134.146 16.0629 136.392 15.1386 139.081 15.1595C141.452 15.1752 143.463 16.1047 145.118 17.9533ZM145.134 25.1545C145.145 23.6714 144.643 22.3763 143.63 21.2797C142.638 20.204 141.379 19.6609 139.849 19.6505C138.293 19.64 137.013 20.1622 136.01 21.2223C135.029 22.2824 134.532 23.567 134.517 25.0761C134.506 26.6062 134.992 27.9117 135.984 28.9874C136.977 30.0632 138.235 30.6062 139.765 30.6167C141.296 30.6271 142.565 30.1049 143.573 29.0449C144.601 27.9587 145.124 26.6636 145.134 25.1545Z" fill="white"/>
<path d="M156.195 35.2956C155.381 35.2904 154.702 35.0136 154.148 34.4601C153.595 33.9118 153.323 33.2277 153.328 32.4183C153.334 31.6298 153.616 30.9718 154.18 30.4391C154.738 29.9117 155.428 29.6506 156.237 29.6558C157.005 29.6611 157.658 29.9326 158.196 30.4705C158.734 31.0083 159.005 31.6715 159 32.4601C158.995 33.2695 158.713 33.9483 158.164 34.4914C157.616 35.0345 156.963 35.3008 156.195 35.2956Z" fill="white"/>
<path d="M73.3662 42.2043C72.8961 42.1991 72.5149 42.0425 72.2172 41.7344C71.9143 41.421 71.7681 41.0346 71.7681 40.5699C71.7733 40.0999 71.9352 39.7082 72.2538 39.4053C72.5723 39.0972 72.964 38.9458 73.4132 38.951C73.6743 38.951 73.9198 39.0085 74.16 39.1181C74.4002 39.2278 74.5882 39.3688 74.724 39.5463L74.536 39.7187C74.4107 39.562 74.2435 39.4367 74.0451 39.3427C73.8466 39.2539 73.6325 39.2069 73.4132 39.2017C73.0267 39.2017 72.6977 39.327 72.4313 39.5933C72.165 39.8544 72.0344 40.1834 72.0292 40.5751C72.024 40.972 72.1545 41.3009 72.4052 41.5673C72.6611 41.8284 72.9797 41.9589 73.3662 41.9641C73.8101 41.9694 74.2018 41.797 74.5465 41.4524L74.5517 40.7109L73.293 40.7004V40.4602L74.8076 40.4706L74.7971 41.5516C74.4159 41.9902 73.9354 42.2096 73.3662 42.2043Z" fill="white"/>
<path d="M82.5265 42.2252H82.2131L81.4141 40.8884L80.7821 40.8832L80.7717 42.2148H80.5106L80.5367 39.0555L81.4872 39.0607C81.811 39.0659 82.0564 39.1547 82.2235 39.3427C82.3959 39.5202 82.4794 39.7343 82.4794 39.985C82.4794 40.1991 82.4063 40.3871 82.2705 40.549C82.14 40.7108 81.9467 40.8153 81.6908 40.8623L82.5265 42.2252ZM81.4872 39.3113L80.7926 39.3061L80.7821 40.6325L81.4141 40.6377C81.6647 40.6377 81.858 40.5803 81.999 40.4602C82.1348 40.3401 82.2079 40.1782 82.2079 39.9745C82.2079 39.7761 82.1452 39.6194 82.0146 39.4941C81.8893 39.374 81.7117 39.3113 81.4872 39.3113Z" fill="white"/>
<path d="M90.4804 42.2879H90.1931L89.8223 41.3271L88.4958 41.3166L88.1146 42.2722H87.8273L89.1121 39.1234H89.2531L90.4804 42.2879ZM89.7388 41.0816L89.1747 39.5881L88.5846 41.0764L89.7388 41.0816Z" fill="white"/>
<path d="M98.0426 42.3453L96.0215 42.3297L96.0424 39.1756H96.3035L96.2826 42.079L98.0478 42.0947L98.0426 42.3453Z" fill="white"/>
<path d="M103.615 42.455C103.558 42.455 103.505 42.4341 103.464 42.3923C103.422 42.3506 103.406 42.3036 103.406 42.2461C103.406 42.1887 103.427 42.1417 103.469 42.1051C103.511 42.0686 103.558 42.0477 103.62 42.0477C103.678 42.0477 103.725 42.0686 103.766 42.1051C103.808 42.1417 103.824 42.1887 103.824 42.2461C103.824 42.3036 103.803 42.3558 103.761 42.3923C103.719 42.4393 103.672 42.4602 103.615 42.455Z" fill="white"/>
<path d="M117.669 42.4968L115.648 42.4811L115.669 39.327H115.93L115.909 42.2305L117.674 42.2461L117.669 42.4968Z" fill="white"/>
<path d="M125.487 42.5542H125.2L124.829 41.5934L123.502 41.5829L123.121 42.5386H122.834L124.119 39.3897H124.26L125.487 42.5542ZM124.751 41.3532L124.187 39.8597L123.591 41.3479L124.751 41.3532Z" fill="white"/>
<path d="M132.344 42.6587C131.874 42.6534 131.493 42.4968 131.195 42.1887C130.892 41.8754 130.746 41.4889 130.746 41.0242C130.751 40.5542 130.913 40.1625 131.232 39.8544C131.55 39.5463 131.942 39.3949 132.391 39.4001C132.652 39.4001 132.898 39.4576 133.138 39.5672C133.378 39.6769 133.566 39.8179 133.702 39.9954L133.514 40.1625C133.389 40.0059 133.222 39.8806 133.023 39.7918C132.825 39.703 132.611 39.656 132.391 39.6508C132.005 39.6456 131.676 39.7761 131.409 40.0424C131.143 40.3035 131.012 40.6325 131.007 41.0242C131.002 41.421 131.133 41.75 131.383 42.0111C131.639 42.2722 131.958 42.4028 132.344 42.408C132.788 42.4132 133.18 42.2409 133.524 41.8963L133.53 41.1547L132.271 41.1443V40.8988L133.786 40.9093L133.775 41.9903C133.389 42.4393 132.908 42.6587 132.344 42.6587Z" fill="white"/>
<path d="M140.883 42.7265C140.434 42.7213 140.053 42.5594 139.744 42.2461C139.431 41.9224 139.28 41.5411 139.285 41.0921C139.29 40.643 139.452 40.2565 139.765 39.938C140.084 39.6194 140.47 39.4628 140.92 39.4628C141.369 39.468 141.745 39.6299 142.058 39.9484C142.377 40.267 142.533 40.6534 142.528 41.1025C142.523 41.5516 142.361 41.938 142.042 42.2513C141.719 42.5751 141.332 42.7318 140.883 42.7265ZM140.893 42.4759C141.275 42.4811 141.599 42.3506 141.86 42.0842C142.126 41.8179 142.257 41.4889 142.262 41.1077C142.267 40.7213 142.136 40.3975 141.875 40.1208C141.619 39.8492 141.301 39.7134 140.92 39.7134C140.538 39.7134 140.22 39.844 139.953 40.1103C139.687 40.3819 139.556 40.7056 139.551 41.0868C139.546 41.468 139.677 41.797 139.938 42.0686C140.188 42.3349 140.512 42.4707 140.893 42.4759Z" fill="white"/>
<path d="M148.931 42.7892C148.701 42.7892 148.497 42.7318 148.315 42.6117C148.132 42.4968 147.991 42.3349 147.902 42.1208L148.111 41.9798C148.189 42.1521 148.299 42.2931 148.44 42.3871C148.581 42.4863 148.743 42.5333 148.926 42.5386C149.14 42.5386 149.312 42.4811 149.448 42.3662C149.584 42.2513 149.652 42.1051 149.652 41.9328C149.652 41.8127 149.62 41.7135 149.552 41.6247C149.485 41.5412 149.38 41.4628 149.244 41.3897C149.156 41.3427 149.046 41.2957 148.92 41.2383C148.759 41.1652 148.659 41.1182 148.607 41.0921C148.247 40.9093 148.069 40.6586 148.074 40.3349C148.074 40.0999 148.163 39.9014 148.325 39.75C148.492 39.5933 148.712 39.5202 148.983 39.5202C149.359 39.5255 149.657 39.6821 149.871 39.9954L149.673 40.1521C149.495 39.8962 149.265 39.7657 148.983 39.7604C148.795 39.7604 148.644 39.8127 148.524 39.9119C148.403 40.0163 148.346 40.1521 148.341 40.3192C148.341 40.5333 148.466 40.7109 148.717 40.8466C148.785 40.8832 148.9 40.9406 149.062 41.0137C149.239 41.0921 149.359 41.1495 149.422 41.1808C149.761 41.3688 149.928 41.6143 149.923 41.9171C149.923 42.173 149.824 42.3819 149.631 42.5438C149.448 42.7109 149.213 42.7892 148.931 42.7892Z" fill="white"/>
</g>
<defs>
<clipPath id="clip0_24_6463">
<rect width="159" height="54.2045" fill="white"/>
</clipPath>
</defs>
</svg>
