<svg width="58" height="78" viewBox="0 0 58 78" fill="none" xmlns="http://www.w3.org/2000/svg">
<g clip-path="url(#clip0_24_8512)">
<path d="M29.28 9.84006e-05C50.6 0.190098 64.56 22.8201 54.79 41.8501C48.78 53.5701 40.2 63.6701 32.89 74.5701C30.53 78.0901 27.8 78.4601 25.3 74.7501C17.8 63.6501 8.98003 53.3801 2.98003 41.3401C-6.52997 22.2801 7.93003 -0.179902 29.28 9.84006e-05ZM41.05 29.6201C41.38 22.9101 35.92 17.1001 29.19 17.0001C22.76 16.9001 17.29 22.0501 16.98 28.4701C16.66 35.1701 22.14 41.0001 28.84 41.1001C35.21 41.2001 40.74 36.0001 41.05 29.6201Z" fill="white"/>
</g>
<defs>
<clipPath id="clip0_24_8512">
<rect width="57.97" height="77.38" fill="white"/>
</clipPath>
</defs>
</svg>
