<svg width="93" height="93" viewBox="0 0 93 93" fill="none" xmlns="http://www.w3.org/2000/svg">
<path d="M89.359 56.3833V52.3879C89.359 51.6361 88.7653 51.0413 88.0134 51.0413C87.2615 51.0413 86.6679 51.6361 86.6679 52.3879V56.3833H73.6875V44.3546C73.6875 42.5345 72.2232 41.0702 70.4028 41.0702H64.4666V28.0928H75.8641C81.8002 28.0928 86.6283 32.919 86.6283 38.8542V46.0161C86.6283 46.7679 87.2219 47.3628 87.9738 47.3628C88.7257 47.3628 89.3193 46.7679 89.3193 46.0161V38.8542C89.3193 31.4154 83.3041 25.4015 75.8641 25.4015H64.1105C63.2003 22.6318 60.628 20.7724 57.6995 20.7724H53.2275V15.668C55.048 15.5889 56.5518 14.3226 56.9871 12.542H70.5215C73.0938 12.5025 75.1517 10.4462 75.1913 7.87429C75.1913 5.3024 73.0938 3.20461 70.5215 3.20461H56.9871C56.5518 1.3845 54.9293 0.0786133 53.0693 0.0786133H44.2837C42.3842 0.0786133 40.7616 1.3845 40.3263 3.20461H26.8314C24.2591 3.16505 22.122 5.18362 22.0429 7.79508C22.0033 10.367 24.0216 12.5035 26.6335 12.5826C26.7127 12.5826 26.7523 12.5826 26.8314 12.5826H40.3659C40.7616 14.3632 42.305 15.6295 44.1254 15.7086V20.813H39.6535C36.725 20.813 34.1527 22.6724 33.2425 25.4421H23.1114C22.3595 23.345 20.0642 22.2367 17.9667 22.9884C16.8191 23.3841 15.9089 24.2946 15.5131 25.4421H1.34551C0.593601 25.4421 0 26.035 0 26.7868C0 27.5386 0.593601 28.1315 1.34551 28.1315H15.2757V41.1107H1.34551C0.593601 41.1107 0 41.7036 0 42.4554C0 43.2072 0.593601 43.8001 1.34551 43.8001H15.5131C16.2651 45.8972 18.5604 47.0066 20.6578 46.2943C21.8055 45.8987 22.7157 44.9871 23.1114 43.8001H33.2425C34.1527 46.5699 36.725 48.4312 39.6535 48.4312H41.9093C42.6612 48.4312 43.2548 47.8363 43.2548 47.0845C43.2548 46.3328 42.6612 45.7399 41.9093 45.7399H39.6535C37.6748 45.7399 35.9731 44.2754 35.6565 42.297C35.6961 42.0596 35.6169 27.42 35.6565 26.9452C35.9731 24.9668 37.6748 23.5024 39.6535 23.5024H57.739C59.7177 23.5024 61.4194 24.9678 61.736 26.9066C61.9339 28.6871 61.9339 40.6757 61.736 42.2584C61.4194 44.2367 59.7177 45.6616 57.739 45.7012H48.2016C47.4497 45.7012 46.8561 46.2941 46.8561 47.0459C46.8561 47.7977 47.4497 48.3906 48.2016 48.3906H57.739C60.6675 48.3906 63.2398 46.5312 64.15 43.7615H70.4028C70.7194 43.7615 70.9964 44.0381 70.9964 44.3546V56.3833C69.4926 56.3833 68.3054 57.6097 68.3054 59.1133V61.764C68.3054 63.2676 69.5322 64.4959 71.036 64.4959H89.3193C90.8232 64.4959 92.05 63.2676 92.05 61.764V59.1133C92.05 57.6097 90.8628 56.3833 89.359 56.3833ZM57.1454 5.93455H70.5611C71.6692 5.93455 72.5398 6.80504 72.5398 7.91293C72.5398 8.98126 71.6296 9.89132 70.5611 9.89132H57.1454V5.93455ZM40.2471 9.89132H26.8314C25.7233 9.89132 24.8527 9.02083 24.8527 7.91293C24.8527 6.80504 25.7233 5.93455 26.8314 5.93455H40.2471V9.89132ZM20.6578 42.4554C20.6578 43.2072 20.0642 43.8001 19.3123 43.8001C18.5603 43.8001 17.9667 43.2072 17.9667 42.4554V26.7868C17.9667 26.035 18.5603 25.4421 19.3123 25.4421C20.0642 25.4421 20.6578 26.035 20.6578 26.7868V42.4554ZM32.9259 41.1107H23.3489V28.1315H32.9259V41.1107ZM50.5761 20.813H46.8165V15.7086H50.5761V20.813ZM44.2837 13.0173C43.5318 13.0173 42.9382 12.4244 42.9382 11.6726V4.15517C42.9382 3.40338 43.5318 2.80855 44.2837 2.80855H53.0693C53.8212 2.80855 54.4148 3.40338 54.4148 4.15517V11.6726C54.4148 12.4244 53.8212 13.0173 53.0693 13.0173H44.2837ZM89.359 61.764L71.036 61.8046C71.036 61.8046 71.036 61.8036 70.9964 61.764V59.1133C70.9964 59.1133 70.9964 59.1133 71.036 59.1133H89.3193C89.3193 59.1133 89.3194 59.1133 89.359 59.1133V61.764ZM81.5232 69.1636C80.7713 68.4514 79.6236 68.4514 78.8717 69.1636C76.339 71.6959 70.4028 78.0272 70.4028 82.4192C70.4028 87.8399 74.7955 92.2319 80.2172 92.2319C85.6389 92.2319 90.0317 87.8399 90.0317 82.4192C89.9921 77.9876 84.0559 71.6564 81.5232 69.1636ZM80.1777 89.5019C76.2598 89.5019 73.0939 86.3364 73.0939 82.4192C73.0939 80.7573 74.9539 76.958 80.1777 71.6559C85.4015 76.958 87.2615 80.7573 87.2615 82.4192C87.2615 86.3364 84.0955 89.5019 80.1777 89.5019Z" fill="#D3D92E"/>
</svg>
