<svg width="68" height="95" viewBox="0 0 68 95" fill="none" xmlns="http://www.w3.org/2000/svg">
<path d="M31.9057 3.126C41.4431 3.126 49.1601 10.8817 49.1997 20.4175V26.7082C49.1997 26.7477 49.1997 26.7874 49.1997 26.7874C42.0367 27.5787 36.6148 33.6318 36.6148 40.8331C36.6148 41.7036 37.3272 42.4155 38.1979 42.4155H43.0654C43.8965 46.6492 48.0521 49.4192 52.2866 48.5882C55.4129 47.9552 57.8267 45.5413 58.4599 42.4155H63.3275C64.1981 42.4155 64.9106 41.7036 64.9106 40.8331C64.9106 33.6318 59.4891 27.5787 52.3262 26.7874C52.3262 26.7478 52.3262 26.7082 52.3262 26.7082V20.4175C52.3262 9.14075 43.1844 0 31.9057 0C20.627 0 11.4852 9.14075 11.4852 20.4175V86.3765H2.06647C1.19583 86.3765 0.483398 87.0884 0.483398 87.9589V92.6672C0.483398 93.5377 1.19583 94.2495 2.06647 94.2495H24.07C24.9407 94.2495 25.6531 93.5377 25.6531 92.6672V87.9589C25.6531 87.0884 24.9407 86.3765 24.07 86.3765H14.6513V20.4175C14.6513 10.8817 22.3683 3.16557 31.9057 3.126ZM50.7431 45.5415C48.7644 45.5415 46.9836 44.2751 46.3108 42.4155H55.215C54.5027 44.2751 52.7614 45.5415 50.7431 45.5415ZM52.3262 29.952C57.1543 30.6642 60.9533 34.4226 61.6657 39.2895H39.8998C40.7308 33.2356 46.3109 29.0815 52.3262 29.952ZM22.4474 89.5025V91.0849H3.60993V89.5025H22.4474Z" fill="#D3D92E"/>
<path d="M50.7433 50.25C49.8727 50.25 49.1603 50.9638 49.1603 51.8343V58.1249C49.1207 58.9954 49.7935 59.7083 50.6641 59.7478C51.5347 59.7874 52.2472 59.1133 52.2868 58.2428C52.2868 58.2032 52.2868 58.1645 52.2868 58.1249V51.8343C52.3263 50.9638 51.614 50.25 50.7433 50.25Z" fill="#D3D92E"/>
<path d="M60.7555 54.9987L57.629 49.5388C57.1936 48.7871 56.2437 48.5491 55.4918 48.9843C54.7398 49.4196 54.5023 50.3703 54.898 51.0825L58.0246 56.5018C58.4599 57.2536 59.4099 57.5312 60.1618 57.1355C60.9138 56.7003 61.1909 55.7505 60.7952 54.9987C60.7556 55.0383 60.7555 55.0383 60.7555 54.9987Z" fill="#D3D92E"/>
<path d="M66.4938 48.1146L61.0325 44.9887C60.2805 44.5138 59.3306 44.7498 58.8557 45.462C58.3808 46.2138 58.6187 47.1646 59.331 47.6394C59.3706 47.6394 59.4098 47.678 59.4098 47.678L64.8315 50.804C65.5834 51.1997 66.5333 50.9221 66.9686 50.1703C67.4435 49.4581 67.2061 48.5499 66.4938 48.1146Z" fill="#D3D92E"/>
<path d="M42.5904 45.5413C42.1551 44.7895 41.2056 44.5525 40.4537 44.9481L35.032 48.0742C34.2801 48.5094 34.0029 49.4592 34.3986 50.211C34.7944 50.9628 35.7839 51.2403 36.5358 50.8447H36.5755L41.9972 47.7187C42.7491 47.2834 43.0258 46.2931 42.5904 45.5413Z" fill="#D3D92E"/>
<path d="M46.0332 48.9843C45.2813 48.549 44.3319 48.8256 43.8966 49.5774L40.7701 54.9986C40.3744 55.7504 40.6515 56.7002 41.4034 57.1355C42.1158 57.5311 43.0261 57.2932 43.501 56.581L46.6269 51.1211C47.0227 50.4089 46.7851 49.4195 46.0332 48.9843Z" fill="#D3D92E"/>
</svg>
