<svg width="87" height="89" viewBox="0 0 87 89" fill="none" xmlns="http://www.w3.org/2000/svg">
<g clip-path="url(#clip0_54_145)">
<path d="M87 8.20414C86.3259 9.07956 85.3477 8.87789 84.3242 8.9031C84.3242 9.27664 84.3242 9.60893 84.3242 9.94352C84.3174 17.16 84.4036 24.3787 84.2856 31.5929C84.1063 42.3752 75.6839 51.4983 65.0577 52.5685C63.7118 52.7037 62.3523 52.7152 60.8816 52.7908C60.8816 53.8266 60.8884 54.8762 60.8793 55.9258C60.8703 57.1427 60.4981 57.5277 59.3201 57.5323C57.6225 57.5368 55.9226 57.5414 54.2249 57.53C53.1582 57.5231 52.7452 57.106 52.7293 56.0129C52.7134 54.9564 52.7247 53.8977 52.7247 52.7794C46.5787 52.7794 40.4849 52.7794 34.2912 52.7794C34.2912 53.8198 34.298 54.8419 34.2889 55.8639C34.2798 57.1312 33.9008 57.5254 32.682 57.53C30.9844 57.5346 29.2845 57.5391 27.5868 57.5277C26.5564 57.5208 26.1524 57.1152 26.1388 56.0725C26.1252 54.9908 26.1365 53.9068 26.1365 52.8435C22.6051 52.1285 19.5797 53.9046 18.8171 57.0923C18.7127 57.5323 18.6719 57.9975 18.6719 58.4512C18.6628 65.5829 18.6651 72.7123 18.6651 79.8439C18.6651 79.986 18.6832 80.1258 18.7037 80.3894C19.0373 80.3894 19.3664 80.3871 19.6932 80.3894C20.9324 80.3985 21.2887 80.7583 21.2955 82.0371C21.3023 83.6687 21.2683 85.3027 21.3091 86.9343C21.3273 87.6493 21.1389 88.2108 20.5738 88.6394C13.9489 88.6394 7.32169 88.6394 0.696772 88.6394C0.124837 88.1306 -0.0204163 87.4935 0.0022795 86.735C0.0499408 85.1904 0.0136274 83.6435 0.0181666 82.0966C0.0204362 80.7446 0.374491 80.3962 1.74305 80.3916C2.02221 80.3894 2.30137 80.3916 2.69401 80.3916C2.69401 79.9975 2.69401 79.6629 2.69401 79.3283C2.69855 72.1393 2.61457 64.9504 2.73032 57.7637C2.90281 46.9104 11.273 37.8102 21.965 36.7102C23.3109 36.5727 24.6681 36.5658 26.1365 36.4902C26.1365 35.4498 26.1297 34.4002 26.1388 33.3506C26.1479 32.1337 26.5178 31.7533 27.7003 31.7487C29.3707 31.7441 31.0411 31.7418 32.7115 31.7487C33.8826 31.7533 34.2798 32.1544 34.2912 33.3552C34.3025 34.3841 34.2934 35.4131 34.2934 36.4994C40.4395 36.4994 46.5356 36.4994 52.727 36.4994C52.727 35.4566 52.7225 34.4346 52.7293 33.4125C52.7383 32.1452 53.1174 31.751 54.3361 31.7487C56.0338 31.7441 57.7337 31.7396 59.4314 31.751C60.4595 31.7579 60.8657 32.1635 60.8793 33.2062C60.8952 34.2879 60.8816 35.3718 60.8816 36.4352C64.4063 37.1502 67.4362 35.3718 68.1988 32.1841C68.3032 31.7441 68.3463 31.2789 68.3463 30.8252C68.3554 23.6935 68.3531 16.5641 68.3531 9.43247C68.3531 9.29039 68.3327 9.1506 68.3145 8.88706C67.8946 8.88706 67.4816 8.89852 67.0685 8.88477C66.1788 8.85727 65.7408 8.46081 65.7317 7.58081C65.709 5.69018 65.6818 3.79956 65.759 1.91122C65.7771 1.4781 66.2038 1.06102 66.4444 0.634766C73.2758 0.634766 80.1073 0.634766 87 0.634766C87 3.16247 87 5.68331 87 8.20414ZM11.5272 80.3664C11.5272 79.9471 11.5272 79.6079 11.5272 79.271C11.5295 72.2012 11.4705 65.1291 11.5545 58.0593C11.6294 51.7435 16.3206 46.4818 22.4757 45.6523C23.665 45.4919 24.8747 45.4964 26.0889 45.4231C26.0889 43.2644 26.0889 41.1583 26.0889 38.8093C24.0939 39.011 22.1285 39.0202 20.2492 39.4327C11.2662 41.4058 5.15197 49.0737 5.08388 58.4054C5.03168 65.4752 5.07253 72.5473 5.0748 79.6171C5.0748 79.86 5.11338 80.1052 5.13381 80.3641C7.26949 80.3664 9.33027 80.3664 11.5272 80.3664ZM60.9293 45.4941C61.7032 45.4941 62.434 45.5262 63.1603 45.485C63.9206 45.4414 64.69 45.3841 65.4344 45.2329C72.3566 43.8235 77.116 38.0737 77.175 30.9352C77.2317 23.8035 77.1886 16.6719 77.1886 9.54018C77.1886 9.34768 77.1636 9.15747 77.15 8.96268C74.9894 8.96268 72.89 8.96268 70.7362 8.96268C70.7362 9.40039 70.7362 9.77164 70.7362 10.1406C70.7316 17.1577 70.7747 24.1748 70.6998 31.1918C70.659 35.0373 67.8606 38.2043 64.1226 38.8162C63.0786 38.9881 62.0051 38.9743 60.9316 39.0477C60.9293 41.2018 60.9293 43.3079 60.9293 45.4941ZM79.5671 8.91914C79.5671 9.33164 79.5671 9.66852 79.5671 10.0054C79.5603 17.1921 79.6466 24.381 79.524 31.5654C79.3833 39.7971 72.9195 46.8302 64.8284 47.7491C63.5461 47.8935 62.2502 47.905 60.9452 47.9806C60.9452 48.7644 60.9452 49.516 60.9452 50.4762C62.9379 50.2746 64.8829 50.2631 66.7417 49.8552C75.7701 47.8706 81.8685 40.2004 81.932 30.8046C81.9797 23.7623 81.9434 16.7177 81.9388 9.6731C81.9388 9.42789 81.9025 9.18268 81.8798 8.91914C81.1127 8.91914 80.4114 8.91914 79.5671 8.91914ZM52.6793 39.0179C46.5469 39.0179 40.4576 39.0179 34.3524 39.0179C34.3524 41.1904 34.3524 43.3148 34.3524 45.4391C40.503 45.4391 46.59 45.4391 52.6793 45.4391C52.6793 43.2712 52.6793 41.1652 52.6793 39.0179ZM26.0866 47.9073C25.5737 47.9073 25.1243 47.9073 24.6749 47.9073C18.3905 47.9118 13.9171 52.4127 13.908 58.756C13.8989 65.6562 13.9058 72.5541 13.908 79.4544C13.908 79.7546 13.933 80.0548 13.9443 80.3321C14.7705 80.3321 15.4922 80.3321 16.2843 80.3321C16.2843 79.9379 16.2843 79.5987 16.2843 79.2596C16.2866 72.2448 16.248 65.2323 16.3092 58.2175C16.3456 54.2598 19.1076 51.0858 22.9296 50.4579C23.9509 50.2906 24.9995 50.3089 26.0866 50.2379C26.0866 49.5 26.0866 48.7689 26.0866 47.9073ZM31.8718 34.2123C30.7052 34.2123 29.6408 34.2123 28.5877 34.2123C28.5877 41.2041 28.5877 48.1433 28.5877 55.0687C29.7202 55.0687 30.7801 55.0687 31.8718 55.0687C31.8718 48.0952 31.8718 41.1766 31.8718 34.2123ZM55.1464 55.0756C56.3039 55.0756 57.3683 55.0756 58.4373 55.0756C58.4373 48.086 58.4373 41.1491 58.4373 34.21C57.3093 34.21 56.2471 34.21 55.1464 34.21C55.1464 41.1812 55.1464 48.0975 55.1464 55.0756ZM84.5829 3.09372C79.0678 3.09372 73.6253 3.09372 68.1602 3.09372C68.1602 4.23497 68.1602 5.33039 68.1602 6.43727C73.6617 6.43727 79.1041 6.43727 84.5829 6.43727C84.5829 5.31664 84.5829 4.24185 84.5829 3.09372ZM18.8535 86.2102C18.8535 85.0414 18.8535 83.9483 18.8535 82.8483C13.3474 82.8483 7.90724 82.8483 2.45343 82.8483C2.45343 83.9941 2.45343 85.0896 2.45343 86.2102C7.93221 86.2102 13.352 86.2102 18.8535 86.2102ZM34.3366 50.2654C40.469 50.2654 46.5583 50.2654 52.6612 50.2654C52.6612 49.4656 52.6612 48.7162 52.6612 47.9691C46.5106 47.9691 40.4236 47.9691 34.3366 47.9691C34.3366 48.7644 34.3366 49.4954 34.3366 50.2654Z" fill="#D3D92E"/>
</g>
<defs>
<clipPath id="clip0_54_145">
<rect width="87" height="88" fill="white" transform="translate(0 0.641602)"/>
</clipPath>
</defs>
</svg>
