<svg width="72" height="91" viewBox="0 0 72 91" fill="none" xmlns="http://www.w3.org/2000/svg">
<g clip-path="url(#clip0_54_139)">
<path d="M31.1947 91C29.4653 90.7133 27.7 90.5545 26.0111 90.1184C12.806 86.7107 4.29239 78.4543 0.995887 65.3399C-1.42155 55.7304 0.644737 46.7844 6.28224 38.5778C14.7672 26.2289 23.135 13.8017 31.5698 1.41951C31.94 0.876823 32.5086 0.469219 32.9839 0C33.3423 0 33.7006 0 34.0589 0C34.5319 0.514245 35.0765 0.978724 35.4659 1.54984C40.0667 8.28716 44.6435 15.0411 49.2276 21.7902C49.39 22.0296 49.562 22.2595 49.7866 22.5723C51.1267 20.6053 52.4262 18.6977 53.7257 16.79C53.9765 16.4227 54.2154 16.0459 54.4757 15.6857C55.393 14.4131 56.7785 14.4368 57.6958 15.7733C59.4921 18.3896 61.2646 21.0224 63.049 23.6505C65.1153 26.6933 67.1816 29.7385 69.2479 32.7813C73.5262 39.085 72.7618 47.365 67.3584 52.735C66.7898 53.299 66.625 53.8251 66.6824 54.5905C67.6426 67.3945 62.8508 77.5988 52.3975 85.1134C47.6677 88.5141 42.281 90.3507 36.4477 90.8507C36.247 90.8673 36.0535 90.9479 35.8552 90.9976C34.3002 91 32.7474 91 31.1947 91ZM63.2067 55.8133C62.7767 55.9863 62.4757 56.1072 62.1771 56.2304C55.6295 58.9343 48.1694 57.0575 43.6641 51.569C39.2592 46.2038 38.932 38.5494 42.8615 32.7837C44.2828 30.7007 45.6803 28.601 47.1302 26.5369C47.5101 25.9942 47.5196 25.6198 47.1374 25.0605C42.7492 18.6432 38.3921 12.2068 34.0231 5.77518C33.8606 5.53583 33.6791 5.30596 33.4689 5.02396C33.2371 5.34625 33.046 5.60219 32.8645 5.8676C25.0126 17.4274 17.2133 29.0252 9.28732 40.5329C4.55755 47.3958 2.7588 54.8322 4.12996 63.027C6.68833 78.3098 21.6277 89.3554 37.15 87.1823C48.8549 85.5424 56.9433 79.0563 61.3793 68.1908C62.9774 64.2735 63.4838 60.1453 63.2067 55.8133ZM56.0881 19.783C55.952 19.9371 55.8851 19.9963 55.8349 20.0674C52.4142 25.0961 48.9624 30.1082 45.5871 35.1677C44.0153 37.5209 43.4754 40.1846 43.7812 42.9785C44.3402 48.0546 48.0619 52.2681 52.9947 53.5028C58.0087 54.7564 63.2019 52.8464 66.164 48.6542C69.1237 44.4715 69.1547 39.0068 66.2452 34.7269C64.511 32.1747 62.7767 29.62 61.0425 27.0678C59.4109 24.6672 57.777 22.2666 56.0881 19.783Z" fill="#D3D92E"/>
<path d="M7.54614 59.1333C7.62258 53.1046 9.14184 48.3318 12.2281 44.0591C12.7322 43.36 13.4177 42.9239 14.2108 43.2367C14.7459 43.4477 15.3646 44.0022 15.496 44.5141C15.6298 45.0402 15.3503 45.7985 15.0111 46.289C13.0666 49.0996 11.822 52.1685 11.3467 55.5383C9.97791 65.2616 15.6154 74.5393 24.9699 77.9779C25.3043 78.1011 25.6507 78.2007 25.9803 78.3357C26.974 78.741 27.4183 79.6083 27.1174 80.5373C26.8044 81.5065 25.8489 82.0705 24.8385 81.6772C23.0971 80.997 21.3007 80.3548 19.7146 79.3927C11.8173 74.5938 7.85907 67.4987 7.54614 59.1333Z" fill="#D3D92E"/>
<path d="M30.9585 83.22C29.9313 83.2176 29.1789 82.4474 29.1932 81.4142C29.2051 80.4449 29.991 79.6795 30.9633 79.6961C31.9355 79.7127 32.7429 80.4828 32.7668 81.4189C32.7883 82.3858 31.9474 83.2223 30.9585 83.22Z" fill="#D3D92E"/>
<path d="M50.3768 38.2058C50.3386 38.3385 50.2765 38.6276 50.1786 38.9025C49.1705 41.7747 49.8919 44.2772 52.3189 46.1635C52.9878 46.6849 53.3867 47.2987 53.198 48.1471C53.0379 48.8722 52.5578 49.3936 51.8077 49.4718C51.3682 49.5168 50.8355 49.4315 50.4581 49.2087C46.6432 46.9693 44.983 41.2557 46.9657 37.3005C47.3789 36.4758 48.1816 36.0777 49.0344 36.2791C49.8394 36.4711 50.396 37.201 50.3768 38.2058Z" fill="#D3D92E"/>
<path d="M57.8919 49.4009C57.8847 50.3796 57.0343 51.1948 56.0478 51.1711C55.0923 51.1474 54.3159 50.3393 54.3255 49.3748C54.335 48.3984 55.1018 47.6283 56.074 47.6211C57.0917 47.614 57.8991 48.4055 57.8919 49.4009Z" fill="#D3D92E"/>
</g>
<defs>
<clipPath id="clip0_54_139">
<rect width="72" height="91" fill="white"/>
</clipPath>
</defs>
</svg>
