<svg width="89" height="68" viewBox="0 0 89 68" fill="none" xmlns="http://www.w3.org/2000/svg">
<g clip-path="url(#clip0_191_2)">
<path d="M85.6004 25.2743L83.676 23.2473L76.8768 5.13088C75.6901 2.05869 72.7395 0 69.436 0H20.7827C17.4793 0 14.4966 2.05869 13.342 5.13088L6.63892 23.0256L3.84865 25.5911C1.41117 27.6181 0 30.6269 0 33.7625V60.177C0.0320721 64.4844 3.56 68 7.95387 68H12.9892C17.351 68 20.911 64.5161 20.9431 60.177V56.3447H68.089V60.177C68.1211 64.4844 71.649 68 76.0429 68H81.0782C85.44 68 89 64.5161 89.0321 60.177V33.0657C88.9679 30.1202 87.7492 27.3014 85.6004 25.2743ZM16.9341 6.39776C17.5434 4.81416 19.0829 3.76898 20.7827 3.76898H69.436C71.1359 3.76898 72.6753 4.81416 73.2847 6.39776L79.218 22.1705H74.7921C73.7337 15.1393 67.0948 10.2618 59.9748 11.3069C54.298 12.1621 49.84 16.5645 49.0061 22.1705H11.0007L16.9341 6.39776ZM70.9114 22.1705H52.8227C53.849 17.2296 58.756 14.0941 63.7593 15.1076C67.3513 15.8361 70.1737 18.6232 70.9114 22.1705ZM17.1265 60.177C17.0944 62.4257 15.2663 64.231 12.9892 64.231H7.95387C5.67676 64.231 3.81658 62.4257 3.81658 60.177V55.2678C5.06739 55.9963 6.51063 56.3763 7.95387 56.3447H17.1265V60.177ZM85.2155 60.177C85.1834 62.4257 83.3553 64.231 81.0782 64.231H76.0429C73.7658 64.231 71.9056 62.4257 71.9056 60.177V56.3447H81.0782C82.5535 56.3763 83.9647 55.9963 85.2155 55.2361V60.177ZM81.0782 52.5757H7.95387C5.67676 52.6074 3.84865 50.8021 3.81658 48.5533V33.7625C3.81658 31.7038 4.74667 29.7401 6.35027 28.3782L6.41441 28.3149L9.01225 25.9078H81.0461L82.8422 27.8398C82.8742 27.8714 82.9063 27.9031 82.9384 27.9348C84.3495 29.265 85.1834 31.102 85.1834 33.034V48.5217H85.2155C85.1834 50.802 83.3232 52.6074 81.0782 52.5757Z" fill="#D3D92E"/>
<path d="M25.1124 33.4458H10.8404C9.78199 33.4458 8.94812 34.3009 8.94812 35.3145V45.0695C8.94812 46.1146 9.81407 46.9381 10.8404 46.9381H25.1124C26.1708 46.9381 27.0047 46.083 27.0047 45.0695V35.3145C27.0047 34.2693 26.1388 33.4458 25.1124 33.4458ZM23.1881 43.2008H12.7326V37.1831H23.1881V43.2008Z" fill="#D3D92E"/>
<path d="M78.1596 33.4458H63.8876C62.8292 33.4458 61.9953 34.3009 61.9953 35.3145V45.0695C61.9953 46.1146 62.8613 46.9381 63.8876 46.9381H78.1596C79.218 46.9381 80.0519 46.083 80.0519 45.0695V35.3145C80.084 34.2693 79.218 33.4458 78.1596 33.4458ZM76.2674 43.2008H65.8119V37.1831H76.2674V43.2008Z" fill="#D3D92E"/>
<path d="M53.6886 41.3315H35.3113C34.253 41.3315 33.4191 42.155 33.387 43.2002C33.387 44.2454 34.2209 45.1005 35.2793 45.1005H53.6566C54.715 45.1005 55.5488 44.277 55.5809 43.2319C55.613 42.155 54.747 41.3315 53.6886 41.3315Z" fill="#D3D92E"/>
<path d="M53.6886 35.5044H35.3114C34.253 35.5044 33.4191 36.3595 33.4191 37.3731C33.4191 38.3866 34.253 39.2417 35.3114 39.2417H53.6886C54.747 39.2417 55.5809 38.3866 55.5809 37.3731C55.5809 36.3595 54.747 35.5044 53.6886 35.5044Z" fill="#D3D92E"/>
</g>
<defs>
<clipPath id="clip0_191_2">
<rect width="89" height="68" fill="white"/>
</clipPath>
</defs>
</svg>
