<svg width="92" height="92" viewBox="0 0 92 92" fill="none" xmlns="http://www.w3.org/2000/svg">
<path d="M90.2297 88.963H75.3497V68.2306C75.6267 68.2701 75.9432 68.2692 76.2202 68.2692C80.3755 68.2692 83.7394 64.9063 83.7394 60.7517V60.6725C87.8551 60.1186 90.7441 56.3215 90.19 52.2064C90.0317 51.0985 89.6358 50.0291 89.0422 49.1191C92.1686 46.3889 92.4458 41.6005 89.7152 38.5142C89.2799 38.0394 88.805 37.6049 88.2509 37.2488C89.5173 33.6877 87.9344 29.7702 84.5706 28.0292C84.6497 27.594 84.6892 27.199 84.6892 26.7637C84.6892 23.1235 82.0773 20.0368 78.5156 19.3641C78.3573 15.2095 74.8748 11.9646 70.7195 12.1229C66.7621 12.2416 63.5961 15.4469 63.4774 19.3641C63.0421 19.4432 62.6067 19.5613 62.211 19.7196C62.3297 19.1261 62.3692 18.5724 62.3692 17.9789C62.3692 13.5473 59.1637 9.82892 54.771 9.1167C54.771 4.17074 50.7739 0.134766 45.7875 0.134766C40.8407 0.134766 36.8043 4.13118 36.8043 9.1167C32.4511 9.78935 29.2454 13.5473 29.2059 17.9789C29.2059 18.5724 29.2852 19.1657 29.3643 19.7196C28.9686 19.5613 28.5332 19.4432 28.0979 19.3641C27.9396 15.2095 24.457 11.9646 20.3016 12.1229C16.3838 12.2812 13.218 15.4073 13.0597 19.3641C9.49803 20.0368 6.92551 23.1225 6.92551 26.7232C6.92551 27.1584 6.9652 27.5949 7.04435 27.9906C3.68053 29.692 2.09758 33.649 3.36396 37.2101C-0.0790038 39.5446 -0.98929 44.2122 1.30602 47.6546C1.66219 48.2086 2.09754 48.6838 2.57243 49.1191C0.316691 52.601 1.26643 57.2696 4.74897 59.5249C5.69875 60.1184 6.7278 60.5143 7.83588 60.6725V60.7517C7.83588 64.9063 11.1996 68.2692 15.3549 68.2692C15.6319 68.2692 15.9486 68.2306 16.2256 68.2306V88.963H1.34563C0.593721 88.963 0 89.5579 0 90.3096C0 91.0614 0.593721 91.6543 1.34563 91.6543H90.1108C90.8627 91.6543 91.4565 91.0614 91.4565 90.3096C91.4565 89.5579 90.9816 88.9235 90.2297 88.963ZM65.931 21.4217C66.1684 21.1052 66.2872 20.7094 66.2476 20.3533C66.2081 20.1159 66.1684 19.8392 66.1684 19.6017C66.1684 16.9507 68.3449 14.7736 70.9964 14.7736C73.6478 14.7736 75.8245 16.9507 75.8245 19.6017C75.8245 19.8392 75.7849 20.1159 75.7453 20.3533C75.7057 20.749 75.8245 21.1447 76.062 21.4217C76.339 21.7382 76.6952 21.897 77.091 21.897C79.7424 21.897 81.9189 24.0326 81.9189 26.7232C81.9189 27.2771 81.8397 27.8327 81.6419 28.3866C81.4044 29.0988 81.7607 29.8504 82.473 30.1274H82.5126C85.0454 30.9187 86.5096 33.6094 85.7181 36.1417C85.5994 36.4978 85.4807 36.8144 85.2829 37.1309C84.9267 37.764 85.1246 38.5948 85.7974 38.9509C85.8369 38.9904 85.8764 38.9905 85.916 39.0301C88.3696 40.0984 89.4777 42.9477 88.4488 45.3613C88.0135 46.3505 87.301 47.1402 86.3908 47.6546C85.7576 48.0107 85.5202 48.8415 85.8763 49.4746C85.9555 49.5933 85.995 49.6736 86.1138 49.7528C88.0133 51.6125 88.0134 54.6987 86.1534 56.5979C85.2432 57.508 84.0164 58.0218 82.7104 58.0218C82.5917 58.0218 82.4335 58.0227 82.3148 57.9832C81.5629 57.9436 80.9297 58.4978 80.8506 59.21C80.8506 59.3287 80.8504 59.4854 80.8899 59.6041C80.9691 59.9602 81.0088 60.3164 81.0088 60.6725C81.0088 63.3236 78.8716 65.5006 76.1806 65.5006C74.5185 65.5006 72.9752 64.6685 72.1046 63.244C71.7088 62.611 70.8776 62.4147 70.2444 62.8499C70.0861 62.9686 69.9279 63.0858 69.8488 63.244C68.4241 65.4994 65.4561 66.1735 63.2003 64.7491C62.0527 64.0369 61.3008 62.8892 61.0238 61.5439C61.1425 60.9503 61.2216 60.3561 61.2216 59.7625C61.2216 59.6438 61.2216 59.5258 61.2216 59.4071C66.1288 58.8927 69.7302 54.4997 69.2157 49.5538C69.0574 48.0502 68.5033 46.5879 67.6326 45.3613C71.4318 42.1959 71.9858 36.5756 68.8198 32.7375C68.2262 32.0253 67.514 31.3933 66.7225 30.8789C67.9097 27.7926 67.2764 24.27 65.0998 21.7772C65.4164 21.8168 65.7331 21.6591 65.931 21.4217ZM52.2778 68.8237C55.2063 68.8237 57.937 67.3994 59.5992 65.0254C61.0238 67.0829 63.3189 68.2702 65.8121 68.3098C66.0891 68.3098 66.4059 68.3088 66.6829 68.2692V89.0036H50.9324V68.7445C51.3677 68.784 51.8029 68.8237 52.2778 68.8237ZM32.2928 21.0662C32.4511 20.7497 32.4907 20.3539 32.372 19.9978C31.1848 16.7533 32.8863 13.1525 36.1314 12.0051C36.8041 11.7677 37.5166 11.6496 38.1893 11.6496C38.6246 11.6891 39.0599 11.5295 39.3369 11.2129C39.5743 10.8964 39.6931 10.5006 39.6536 10.1445C39.614 9.82799 39.5743 9.51246 39.5743 9.19592C39.6535 5.71396 42.503 2.98263 45.946 3.06177C49.3098 3.1409 52.0404 5.83266 52.0799 9.19592C52.0799 9.51246 52.0403 9.82799 52.0007 10.1445C51.9612 10.5402 52.08 10.936 52.357 11.2129C52.634 11.5295 52.99 11.6882 53.4253 11.6882C56.8683 11.6882 59.6782 14.4573 59.7178 17.8996C59.7178 18.6514 59.5989 19.3638 59.3615 20.0365C59.124 20.7487 59.4803 21.5002 60.1926 21.7772H60.2323C63.5169 22.806 65.3769 26.2878 64.3875 29.6115C64.2688 30.0468 64.0709 30.4823 63.8334 30.9176C63.4772 31.5506 63.6751 32.3814 64.3479 32.7375C64.3875 32.7771 64.4272 32.7772 64.4667 32.8167C67.6327 34.2016 69.097 37.8817 67.7515 41.0471C67.1974 42.3133 66.2474 43.342 65.0602 44.0147C64.427 44.3708 64.1898 45.2016 64.546 45.8346C64.6251 45.9534 64.6647 46.0337 64.7834 46.1129C67.237 48.5661 67.2764 52.5218 64.8228 54.975C63.6355 56.162 62.0525 56.8355 60.3508 56.8355C60.1926 56.8355 59.9949 56.8345 59.8366 56.795C59.0847 56.7554 58.4513 57.3096 58.3721 58.0218C58.3721 58.1405 58.3722 58.2992 58.4117 58.4179C59.2032 61.7811 57.1058 65.144 53.742 65.9353C51.1301 66.5288 48.439 65.4221 47.0143 63.1668C46.6186 62.5337 45.7876 62.3354 45.1544 62.7707C44.9961 62.8894 44.8379 63.0085 44.7588 63.1668C42.9384 66.0948 39.0599 66.9653 36.1314 65.1451C33.8756 63.7207 32.7678 61.0293 33.3614 58.4179C33.5197 57.7056 33.0843 56.9532 32.3324 56.795C32.2137 56.7554 32.0552 56.7563 31.9365 56.7563C31.7782 56.7563 31.6199 56.795 31.422 56.795C27.9791 56.795 25.1695 53.9854 25.1695 50.543C25.1695 48.8811 25.8421 47.2593 27.0293 46.0723C27.5438 45.5579 27.5438 44.6875 27.0293 44.1731C26.9502 44.094 26.8314 44.0146 26.7127 43.9355C23.705 42.2341 22.6366 38.4369 24.3383 35.3902C25.0111 34.2031 26.04 33.2528 27.3064 32.6989C27.9791 32.4219 28.2957 31.6298 28.0187 30.9176C27.9791 30.878 27.9793 30.8393 27.9397 30.7997C26.1984 27.7926 27.2272 23.9935 30.2348 22.2525C30.6306 22.0151 31.066 21.8167 31.5409 21.698C31.8575 21.6584 32.1345 21.4223 32.2928 21.0662ZM25.9214 68.2692C28.4146 68.2692 30.7099 67.0442 32.1346 64.9867C34.0737 67.796 37.4769 69.2202 40.8407 68.7058V88.963H25.0902V68.2306C25.3277 68.2306 25.6048 68.2692 25.9214 68.2692ZM10.6455 60.7517C10.6455 60.3956 10.6852 60.0394 10.7643 59.6833C10.9226 58.9711 10.4873 58.2206 9.73537 58.0624C9.61665 58.0228 9.45845 58.0218 9.33972 58.0218C9.221 58.0218 9.06256 58.0624 8.94384 58.0624C6.29236 58.0624 4.11588 55.9249 4.11588 53.2343C4.11588 51.9285 4.63029 50.7015 5.5405 49.7914C6.05497 49.277 6.05497 48.4066 5.5405 47.8922C5.46135 47.8131 5.3426 47.7337 5.26345 47.6546C2.92857 46.3489 2.09762 43.3826 3.40358 41.0877C3.91804 40.1776 4.70935 39.4258 5.69871 39.0301C6.37148 38.7136 6.68828 37.9214 6.41126 37.2488C6.37169 37.2092 6.37161 37.1705 6.33204 37.1309C4.98651 34.836 5.77805 31.8687 8.11293 30.5234C8.42953 30.3256 8.74612 30.2055 9.10229 30.0868C9.81463 29.889 10.2103 29.0979 10.0124 28.4253C10.0124 28.4253 10.0124 28.3856 9.97281 28.3461C9.0626 25.8533 10.3685 23.0833 12.8617 22.1733C13.3761 21.9754 13.8907 21.897 14.4447 21.897C14.88 21.9366 15.2757 21.7382 15.5923 21.4217C15.8297 21.1052 15.9485 20.749 15.909 20.3533C15.8694 20.1159 15.8297 19.8392 15.8297 19.6017C15.8297 16.9507 18.0064 14.7736 20.6579 14.7736C23.3094 14.7736 25.4859 16.9507 25.4859 19.6017C25.4859 19.8392 25.4465 20.1159 25.4069 20.3533C25.3673 20.749 25.4859 21.1447 25.7233 21.4217C25.9212 21.6591 26.1983 21.8168 26.5148 21.8564C24.3383 24.3492 23.7052 27.8719 24.8924 30.9581C20.6975 33.6092 19.4707 39.1491 22.1222 43.3037C22.6366 44.0951 23.2699 44.8064 23.9823 45.3999C21.1329 49.4358 22.1222 55.0551 26.1588 57.9039C27.4252 58.7744 28.8499 59.328 30.3933 59.4863C30.3933 59.605 30.3933 59.7231 30.3933 59.8418C30.3933 60.4353 30.4724 61.0296 30.5911 61.6231C30.1162 64.2345 27.5835 65.9744 24.9716 65.4601C23.6657 65.2227 22.4782 64.4321 21.7659 63.2846C21.3701 62.6515 20.5392 62.4533 19.906 62.8885C19.7477 63.0072 19.5895 63.1263 19.5104 63.2846C18.0857 65.54 15.1174 66.2122 12.8617 64.7877C11.5161 63.9568 10.6455 62.4136 10.6455 60.7517ZM19.0355 88.963V67.3998C19.6291 67.0833 20.1831 66.6874 20.6975 66.173C21.212 66.6478 21.766 67.0437 22.3596 67.3998V88.963H19.0355ZM43.4924 88.963V67.8345C44.363 67.3993 45.1544 66.806 45.8668 66.0938C46.5395 66.806 47.3309 67.3993 48.2411 67.8345V88.963H43.4924ZM69.3343 88.963V67.3998C69.9279 67.0833 70.4819 66.6874 70.9964 66.173C71.5108 66.6478 72.065 67.0437 72.6586 67.3998V88.963H69.3343Z" fill="#D3D92E"/>
<path d="M52.0403 22.1723C51.8029 22.8845 52.1987 23.637 52.9111 23.8744C53.0298 23.914 53.188 23.9536 53.3067 23.9536C53.9003 23.9536 54.4148 23.557 54.5731 23.003C55.1667 21.3412 54.6919 19.5224 53.3463 18.4145C52.7923 17.9001 51.9611 17.9398 51.4466 18.4937C50.9321 19.0477 50.9718 19.8785 51.5258 20.3929C52.1194 20.7886 52.3173 21.5392 52.0403 22.1723Z" fill="#D3D92E"/>
<path d="M54.6525 51.5728C53.9006 51.5728 53.3069 52.1657 53.3069 52.9174C53.3069 54.2627 53.1881 54.4212 52.5154 55.1335C52.0009 55.6874 52.0009 56.5182 52.555 57.0326C53.109 57.547 53.94 57.5479 54.4545 56.994C54.4545 56.994 54.4545 56.993 54.4941 56.9534C55.6022 55.9247 56.1562 54.421 55.9979 52.9174C55.9979 52.2052 55.4044 51.5728 54.6525 51.5728Z" fill="#D3D92E"/>
<path d="M54.6523 26.7639C54.217 27.397 54.4148 28.2268 55.0084 28.6225C56.0769 29.4138 56.8685 30.5625 57.1059 31.8683C57.2246 33.4114 56.7102 34.9142 55.6417 36.0221C55.1272 36.5365 55.1272 37.4069 55.6417 37.9213C56.1562 38.4357 56.9475 38.4367 57.5016 37.9619C59.1637 36.2605 59.9948 33.9246 59.797 31.5901C59.4408 29.493 58.2535 27.635 56.5122 26.4084C55.879 25.9731 55.0481 26.1308 54.6523 26.7639Z" fill="#D3D92E"/>
</svg>
