<svg width="87" height="87" viewBox="0 0 87 87" fill="none" xmlns="http://www.w3.org/2000/svg">
<path d="M1.50817 86.772H85.5712C86.365 86.772 87 86.1435 87 85.3579C87 84.5724 86.365 83.9046 85.5712 83.9046H84.1027V69.5681C84.1027 68.429 83.666 67.3292 82.8326 66.5436L76.2044 59.9841C75.0931 58.8843 73.5055 58.4523 71.9973 58.845C70.4891 59.2378 69.2984 60.4162 68.9015 61.9088C68.5046 63.4013 68.9411 65.0117 70.0524 66.0723L75.4106 71.3749V83.9439H72.5132V78.2093C72.5132 73.4566 68.6236 69.6073 63.8212 69.6073H52.2317V63.7941C53.7796 63.2442 55.2482 62.5765 56.677 61.7516C56.7167 61.7124 56.7564 61.7124 56.7961 61.6731C58.6218 60.6126 60.3285 59.3164 61.8367 57.8631C66.8376 53.0318 69.6159 46.3938 69.6159 39.4808C69.6159 19.2132 47.7071 3.06976 45.2067 1.30223C44.2144 0.59522 42.8649 0.59522 41.833 1.30223C39.3722 3.03048 17.8604 18.899 17.4238 38.8524C17.2651 45.7654 19.964 52.4427 24.8061 57.3525C26.4334 59.0022 28.2591 60.4555 30.2436 61.6338C30.2833 61.6338 30.2833 61.6731 30.323 61.6731C31.7518 62.4979 33.2203 63.2049 34.8079 63.7548V69.5681H23.2185C18.416 69.5681 14.5264 73.4173 14.5264 78.17V83.9046H11.6291V71.3356L16.9872 66.033C18.0985 64.9332 18.5351 63.362 18.1382 61.8695C17.7413 60.3769 16.5506 59.1985 15.0424 58.8058C13.5342 58.413 11.9069 58.845 10.8353 59.9448L4.20711 66.5043C3.37362 67.3292 2.93701 68.3897 2.93701 69.5288V83.8654H1.4685C0.674707 83.8654 0 84.4938 0 85.3187C0.0793796 86.1435 0.714375 86.772 1.50817 86.772ZM77.911 69.7644L72.1163 64.0298C71.5607 63.4799 71.5607 62.5765 72.1163 62.0266C72.672 61.4767 73.5848 61.4767 74.1405 62.0266L80.7687 68.5861C81.0465 68.861 81.2053 69.2145 81.2053 69.6073V83.9439H78.3079V70.7857C78.3476 70.3929 78.1888 70.0394 77.911 69.7644ZM32.0694 59.3164C30.0452 56.6455 28.9735 53.3461 29.0529 49.9681C29.291 39.3237 38.6182 29.8183 43.5397 25.537C48.5406 29.8576 58.0264 39.5201 58.0264 50.3216C58.0264 53.5425 56.9945 56.6847 55.0894 59.2771C53.9781 59.9056 52.8271 60.4554 51.6761 60.8875C52.9858 59.0021 53.7003 56.8026 53.7003 54.5244C53.7003 47.0615 47.2705 40.6984 44.4922 38.3417C43.9366 37.8704 43.1428 37.8704 42.5871 38.3417C39.8882 40.6984 33.5378 46.9437 33.3791 54.2887C33.3394 56.6454 34.0538 58.9629 35.4033 60.8875C34.292 60.4554 33.141 59.9449 32.0694 59.3164ZM38.4197 60.0234C37.0305 58.4916 36.2764 56.4491 36.3161 54.3673C36.4352 48.9076 40.8805 43.9193 43.5794 41.4054C46.318 43.9585 50.8426 49.0254 50.8426 54.603C50.9617 58.4915 48.1437 61.8695 44.2541 62.3801C43.9763 62.3801 43.7381 62.4194 43.4603 62.4194C41.4758 62.3408 39.6501 61.4767 38.4197 60.0234ZM20.3608 38.8916C20.7577 20.313 41.2377 5.26936 43.5397 3.61967C45.9211 5.30864 66.7185 20.6272 66.7185 39.4808C66.7185 45.4118 64.3768 51.1465 60.2094 55.3886C60.6857 53.7389 60.9238 52.0499 60.9238 50.3609C60.9238 37.6347 49.4138 26.7153 44.4525 22.5911C43.8969 22.159 43.1428 22.159 42.5871 22.5911C37.7053 26.6368 26.3937 37.3991 26.1159 49.9289C26.0762 51.7357 26.3143 53.5032 26.8303 55.2314C22.5835 50.8715 20.2417 44.9798 20.3608 38.8916ZM37.745 64.619C39.531 65.051 41.3567 65.2474 43.1824 65.2867H43.5397C45.4845 65.2867 47.4293 65.051 49.3344 64.619V69.5681H37.745V64.619ZM17.4635 79.6233H23.2582C24.052 79.6233 24.7267 78.9948 24.7267 78.17C24.7267 77.3844 24.0917 76.7167 23.2582 76.7167H17.6619C18.3367 74.2029 20.599 72.4353 23.2582 72.3961H63.8212C66.4407 72.3961 68.7427 74.1636 69.4174 76.7167H31.9503C31.1565 76.7167 30.4817 77.3452 30.4817 78.17C30.4817 78.9556 31.1168 79.6233 31.9503 79.6233H69.6159V83.9439H17.4635V79.6233ZM5.87407 69.5681C5.87407 69.1753 6.03283 68.8218 6.31066 68.5468L12.9388 61.9873C13.4945 61.4374 14.4074 61.4374 15.0027 61.9873C15.5584 62.5372 15.5584 63.4406 15.0027 64.0298L9.208 69.7644C8.93017 70.0394 8.77141 70.3929 8.77141 70.7857V83.9439H5.87407V69.5681Z" fill="#D3D92E"/>
</svg>
