<svg width="110" height="266" viewBox="0 0 110 266" fill="none" xmlns="http://www.w3.org/2000/svg">
<path d="M104.662 266C107.177 266 109.215 263.962 109.215 261.447C109.215 258.933 107.177 256.895 104.662 256.895C102.148 256.895 100.11 258.933 100.11 261.447C100.11 263.962 102.148 266 104.662 266Z" fill="#C8DA45"/>
<path d="M41.3401 266C43.8543 266 45.8924 263.962 45.8924 261.447C45.8924 258.933 43.8543 256.895 41.3401 256.895C38.8259 256.895 36.7877 258.933 36.7877 261.447C36.7877 263.962 38.8259 266 41.3401 266Z" fill="#C8DA45"/>
<path d="M104.662 9.1047C107.177 9.1047 109.215 7.06654 109.215 4.55235C109.215 2.03816 107.177 0 104.662 0C102.148 0 100.11 2.03816 100.11 4.55235C100.11 7.06654 102.148 9.1047 104.662 9.1047Z" fill="#C8DA45"/>
<path d="M104.662 73.9626C107.177 73.9626 109.215 71.9245 109.215 69.4103C109.215 66.8961 107.177 64.8579 104.662 64.8579C102.148 64.8579 100.11 66.8961 100.11 69.4103C100.11 71.9245 102.148 73.9626 104.662 73.9626Z" fill="#C8DA45"/>
<path d="M104.662 135.267C107.177 135.267 109.215 133.229 109.215 130.715C109.215 128.201 107.177 126.163 104.662 126.163C102.148 126.163 100.11 128.201 100.11 130.715C100.11 133.229 102.148 135.267 104.662 135.267Z" fill="#C8DA45"/>
<path d="M104.662 200.125C107.177 200.125 109.215 198.087 109.215 195.572C109.215 193.058 107.177 191.02 104.662 191.02C102.148 191.02 100.11 193.058 100.11 195.572C100.11 198.087 102.148 200.125 104.662 200.125Z" fill="#C8DA45"/>
<path d="M41.3401 9.1047C43.8543 9.1047 45.8924 7.06654 45.8924 4.55235C45.8924 2.03816 43.8543 0 41.3401 0C38.8259 0 36.7877 2.03816 36.7877 4.55235C36.7877 7.06654 38.8259 9.1047 41.3401 9.1047Z" fill="#C8DA45"/>
<path d="M41.3401 73.9626C43.8543 73.9626 45.8924 71.9245 45.8924 69.4103C45.8924 66.8961 43.8543 64.8579 41.3401 64.8579C38.8259 64.8579 36.7877 66.8961 36.7877 69.4103C36.7877 71.9245 38.8259 73.9626 41.3401 73.9626Z" fill="#C8DA45"/>
<path d="M41.3401 135.267C43.8543 135.267 45.8924 133.229 45.8924 130.715C45.8924 128.201 43.8543 126.163 41.3401 126.163C38.8259 126.163 36.7877 128.201 36.7877 130.715C36.7877 133.229 38.8259 135.267 41.3401 135.267Z" fill="#C8DA45"/>
<path d="M41.3401 200.125C43.8543 200.125 45.8924 198.087 45.8924 195.572C45.8924 193.058 43.8543 191.02 41.3401 191.02C38.8259 191.02 36.7877 193.058 36.7877 195.572C36.7877 198.087 38.8259 200.125 41.3401 200.125Z" fill="#C8DA45"/>
</svg>
