<svg width="91" height="112" viewBox="0 0 91 112" fill="none" xmlns="http://www.w3.org/2000/svg">
<path d="M44.579 59.9263H48.2594V63.6067H44.579V59.9263Z" fill="#D3D92E"/>
<path d="M13.1965 13.7913C10.1492 13.7913 7.65597 16.2837 7.65597 19.3304V21.189H5.79609C2.74887 21.1099 0.215899 23.5635 0.13675 26.6102C0.0576014 29.6569 2.51143 32.19 5.55865 32.2691C5.6378 32.2691 5.71694 32.2691 5.79609 32.2691H17.9452L29.7781 44.0988V109.782C29.7781 110.81 30.6091 111.642 31.638 111.642H38.9988C40.0277 111.642 40.8589 110.81 40.8589 109.782V71.006H53.7998C54.8287 71.006 55.6596 70.1742 55.6596 69.1455V56.2068C56.6886 56.2068 57.5195 55.3769 57.5195 54.3482V45.1286C57.5195 44.0998 56.6886 43.2681 55.6596 43.2681H41.6504L52.7312 32.1899H56.7282L56.8468 32.3077C65.7115 41.1313 79.5229 42.4769 89.9309 35.5922C90.762 34.9987 90.96 33.8516 90.3664 33.0207C89.8124 32.2293 88.7043 31.9924 87.8732 32.5067C80.1562 37.6505 70.0646 37.5315 62.4663 32.1899H64.9201C67.9674 32.269 70.5001 29.8154 70.5792 26.7687C70.6584 23.7219 68.2048 21.1889 65.1576 21.1098C65.0784 21.1098 64.9993 21.1098 64.9201 21.1098H63.06V19.2512C63.1392 16.2045 60.6856 13.6715 57.6384 13.5923C54.5911 13.5132 52.0584 15.9668 51.9793 19.0135C51.9793 19.0927 51.9793 19.1721 51.9793 19.2512V21.1098H40.8985V10.0316C40.8985 7.69712 39.3947 5.5998 37.2181 4.84802V2.67257C37.2577 1.64381 36.4662 0.812964 35.4372 0.773396C34.4083 0.733828 33.5771 1.52402 33.5375 2.55278C33.5375 2.59235 33.5375 2.633 33.5375 2.67257V4.84802C31.3213 5.63937 29.8571 7.69712 29.8571 10.0316V21.1098H18.7763V19.2512C18.7368 16.244 16.2437 13.7913 13.1965 13.7913ZM11.3364 19.3304C11.2968 18.3016 12.0883 17.4708 13.1172 17.4312C14.1462 17.3917 14.9772 18.1819 15.0167 19.2106C15.0167 19.2502 15.0167 19.2908 15.0167 19.3304V21.189H11.3364V19.3304ZM23.169 32.2285H29.7781V38.838L23.169 32.2285ZM51.9793 67.3255H40.8985V56.2473H51.9793V67.3255ZM53.7998 52.5669H40.8589V47.0278H53.7998V52.5669ZM40.8985 38.8766V32.2285H47.5073L40.8985 38.8766ZM55.6596 19.3304C55.6201 18.3016 56.4116 17.4708 57.4405 17.4312C58.4695 17.3917 59.3004 18.1819 59.34 19.2106C59.34 19.2502 59.34 19.2908 59.34 19.3304V21.189H55.6596V19.3304ZM64.8805 24.8695C65.9095 24.8695 66.7404 25.7013 66.7404 26.73C66.7404 27.2444 66.5425 27.7176 66.1863 28.0341C65.8301 28.3902 65.395 28.5895 64.9201 28.55H40.9381V24.8308L64.8805 24.8695ZM33.4981 10.1108C33.4585 9.08207 34.2498 8.25122 35.2788 8.21165C36.3077 8.17209 37.1389 8.96421 37.1785 9.99297C37.1785 10.0325 37.1785 10.0713 37.1785 10.1108V107.923H33.4981V10.1108ZM29.8175 28.5886H5.83546C4.80653 28.5886 3.97558 27.7588 3.97558 26.73C3.97558 26.2156 4.17351 25.7405 4.52968 25.424C4.88585 25.0679 5.3212 24.8705 5.79609 24.9101H29.8175V28.5886Z" fill="#D3D92E"/>
</svg>
