<svg width="89" height="69" viewBox="0 0 89 69" fill="none" xmlns="http://www.w3.org/2000/svg">
<path d="M83.8184 47.9148H78.4364L77.0117 4.19134C76.9722 2.17339 75.2704 0.550496 73.2521 0.590064C71.2734 0.629632 69.6903 2.21296 69.6507 4.19134L68.2261 47.9148H58.8074C58.0951 47.9148 57.5016 48.5067 57.5016 49.2189C57.5016 49.9311 58.0951 50.5249 58.8074 50.5249H83.8184C85.0056 50.5249 85.9949 51.5153 85.9949 52.7023V63.5042C85.9949 64.6912 85.0056 65.6797 83.8184 65.6797H29.2851C28.5728 65.6797 27.9791 66.2735 27.9791 66.9857C27.9791 67.6979 28.5728 68.2917 29.2851 68.2917H83.858C86.4699 68.2917 88.607 66.1543 88.607 63.5428V52.741C88.5674 50.0504 86.4303 47.9148 83.8184 47.9148ZM72.2232 4.27055C72.2232 3.67704 72.6981 3.20215 73.2917 3.20215C73.8854 3.20215 74.3601 3.67704 74.3601 4.27055L75.7849 47.9148H70.7589L72.2232 4.27055Z" fill="#D3D92E"/>
<path d="M24.0612 65.6411H4.82795C3.64072 65.6411 2.65141 64.6507 2.65141 63.4637V52.6618C2.65141 51.4748 3.64072 50.4864 4.82795 50.4864H53.6231C54.3354 50.4864 54.9291 49.8925 54.9291 49.1803C54.9291 48.4681 54.3354 47.8743 53.6231 47.8743H20.4202L18.9956 4.15277C18.956 2.13481 17.2543 0.511922 15.236 0.55149C13.2573 0.591057 11.6744 2.17438 11.6348 4.15277L10.9622 24.0545C10.9622 24.7667 11.5162 25.3605 12.2286 25.3605C12.9409 25.3605 13.4948 24.8459 13.5343 24.1337L14.2073 4.23198C14.2073 3.63846 14.682 3.16357 15.2756 3.16357C15.8692 3.16357 16.3442 3.63846 16.3442 4.23198L17.7688 47.8743H12.7428L13.3365 29.3173C13.3365 28.605 12.7824 28.0112 12.0701 28.0112C11.3578 28.0112 10.8037 28.5258 10.7641 29.2381L10.131 47.8743H4.74896C2.09749 47.8743 0 50.0108 0 52.6618V63.4637C0 66.0752 2.13706 68.2126 4.74896 68.2126H23.982C24.6943 68.2126 25.288 67.6188 25.288 66.9066C25.288 66.1943 24.7736 65.6411 24.0612 65.6411C24.0217 65.6411 24.0217 65.6411 24.0612 65.6411Z" fill="#D3D92E"/>
<path d="M10.0914 59.5469C9.37903 59.5469 8.78535 60.1407 8.78535 60.8529C8.78535 61.5651 9.37903 62.157 10.0914 62.157H14.2467C14.959 62.157 15.5527 61.5651 15.5527 60.8529C15.5527 60.1407 14.959 59.5469 14.2467 59.5469H10.0914Z" fill="#D3D92E"/>
<path d="M24.0613 59.5469H19.906C19.1937 59.5469 18.6 60.1407 18.6 60.8529C18.6 61.5651 19.1937 62.157 19.906 62.157H24.0613C24.7736 62.157 25.3671 61.5651 25.3671 60.8529C25.3275 60.1407 24.7736 59.5469 24.0613 59.5469Z" fill="#D3D92E"/>
<path d="M29.6807 59.5469C28.9683 59.5469 28.3746 60.1407 28.3746 60.8529C28.3746 61.5651 28.9683 62.157 29.6807 62.157H33.836C34.5483 62.157 35.142 61.5651 35.142 60.8529C35.142 60.1407 34.5483 59.5469 33.836 59.5469H29.6807Z" fill="#D3D92E"/>
<path d="M39.4951 59.5469C38.7827 59.5469 38.1893 60.1407 38.1893 60.8529C38.1893 61.5651 38.7827 62.157 39.4951 62.157H43.6506C44.3629 62.157 44.9564 61.5651 44.9564 60.8529C44.9564 60.1407 44.3629 59.5469 43.6506 59.5469H39.4951Z" fill="#D3D92E"/>
<path d="M68.8594 62.157C69.5718 62.157 70.1652 61.5651 70.1652 60.8529C70.1652 60.1407 69.5718 59.5469 68.8594 59.5469H64.7039C63.9916 59.5469 63.3981 60.1407 63.3981 60.8529C63.3981 61.5651 63.9916 62.157 64.7039 62.157H68.8594Z" fill="#D3D92E"/>
<path d="M78.555 62.157C79.2673 62.157 79.861 61.5651 79.861 60.8529C79.861 60.1407 79.2673 59.5469 78.555 59.5469H74.3997C73.6874 59.5469 73.0937 60.1407 73.0937 60.8529C73.0937 61.5651 73.6874 62.157 74.3997 62.157H78.555Z" fill="#D3D92E"/>
<path d="M28.3747 21.9961C37.1602 13.212 51.4071 13.212 60.1926 21.9961C60.7071 22.5105 61.538 22.4718 62.0129 21.9574C62.4878 21.4431 62.4878 20.6509 62.0129 20.1761C52.1984 10.4029 36.3292 10.4029 26.5148 20.1761C26.0003 20.6905 26.0399 21.5213 26.5544 21.9961C27.1084 22.4709 27.8602 22.4709 28.3747 21.9961Z" fill="#D3D92E"/>
<path d="M57.1058 26.9424C57.6202 26.428 57.6202 25.5973 57.1058 25.1224C50.022 18.0794 38.5851 18.0408 31.5014 25.0838C30.9869 25.5982 30.9869 26.3894 31.5014 26.9038C32.0158 27.4181 32.8467 27.4181 33.3216 26.9038C39.3765 20.8499 49.1908 20.8499 55.2853 26.9038C55.7997 27.4577 56.5913 27.4568 57.1058 26.9424Z" fill="#D3D92E"/>
<path d="M51.3673 32.1663C52.0797 32.1663 52.6734 31.5724 52.6734 30.8602C52.6734 30.5041 52.5547 30.1877 52.2777 29.9502C47.885 25.5583 40.7219 25.5583 36.3291 29.9502C35.8147 30.4646 35.7751 31.2558 36.2895 31.7702C36.804 32.2846 37.5956 32.3232 38.11 31.8088L38.1496 31.7702C41.553 28.3674 47.0538 28.3674 50.4572 31.7702C50.6946 32.0076 51.0112 32.1663 51.3673 32.1663Z" fill="#D3D92E"/>
<path d="M40.5638 34.1832C40.0494 34.6976 40.0494 35.5283 40.5638 36.0031C41.0783 36.478 41.9094 36.5175 42.3843 36.0031C43.4528 34.9348 45.1544 34.9348 46.1833 36.0031C46.6978 36.5175 47.5289 36.4789 48.0038 35.9645C48.4787 35.4501 48.4787 34.658 48.0038 34.1832C45.9855 32.0861 42.6217 32.0861 40.5638 34.1832Z" fill="#D3D92E"/>
</svg>
