<svg width="415" height="619" viewBox="0 0 415 619" fill="none" xmlns="http://www.w3.org/2000/svg">
<path d="M169.524 571.733L169.524 571.732L16.9152 302.2L15.6117 302.938L16.9151 302.2C-15.5385 244.897 3.76737 172.541 69.707 151.542L69.7082 151.542C84.5604 146.798 96.9235 146.666 107.486 149.693C118.058 152.723 126.958 158.955 134.815 167.159C147.289 180.185 156.949 197.95 166.419 215.365C168.943 220.006 171.453 224.622 174 229.118C205.726 285.175 286.17 285.273 318.095 229.32L318.095 229.319L423.115 45.0192L423.116 45.0179C448.849 -0.244313 509.844 -13.2569 552.073 20.5924C585.506 47.4648 592.765 95.8997 571.444 133.312L323.166 568.961L323.141 569.006L323.118 569.052C314.604 586.684 300.094 601.639 280.552 610.332L280.551 610.333C239.726 628.523 191.614 610.788 169.524 571.733Z" stroke="#EDEDED" stroke-width="3"/>
</svg>
