<svg width="297" height="321" viewBox="0 0 297 321" fill="none" xmlns="http://www.w3.org/2000/svg">
<g clip-path="url(#clip0_26_8786)">
<path d="M263.672 150.019L193.039 25.5648C182.629 7.24055 160.015 -1.10074 140.767 7.44021C131.553 11.5221 124.732 18.5545 120.723 26.8293L5.79175 227.996C-4.24173 245.544 -0.852935 268.305 14.9393 280.928C34.829 296.834 63.5341 290.711 75.6938 269.459L124.311 184.36C138.818 158.981 175.386 159.026 189.805 184.449C200.924 204.037 210.957 229.505 238.909 220.609C269.874 210.715 278.866 176.773 263.672 150.019Z" stroke="#D2D92E" stroke-miterlimit="10"/>
<path d="M-29.9785 24.012L38.7054 145.027C48.8054 162.841 70.8214 170.961 89.5373 162.642C98.4855 158.671 105.13 151.838 109.028 143.785L220.77 -51.8139C230.515 -68.8737 227.215 -90.9914 211.888 -103.281C192.552 -118.744 164.622 -112.799 152.839 -92.1228L105.573 -9.37536C91.4642 15.2936 55.9152 15.2492 41.8949 -9.4641C31.0862 -28.4982 21.3185 -53.2559 -5.83612 -44.604C-36.003 -35.0204 -44.7518 -2.01017 -29.9785 24.012Z" fill="#D2D92E"/>
</g>
<defs>
<clipPath id="clip0_26_8786">
<rect width="297" height="321" fill="white"/>
</clipPath>
</defs>
</svg>
