<svg width="502" height="337" viewBox="0 0 502 337" fill="none" xmlns="http://www.w3.org/2000/svg">
<path d="M170.237 336.009C173.413 336.009 175.988 333.434 175.988 330.259C175.988 327.083 173.413 324.508 170.237 324.508C167.061 324.508 164.487 327.083 164.487 330.259C164.487 333.434 167.061 336.009 170.237 336.009Z" fill="#C8DA45"/>
<path d="M90.2489 336.009C93.4248 336.009 95.9994 333.434 95.9994 330.259C95.9994 327.083 93.4248 324.508 90.2489 324.508C87.073 324.508 84.4984 327.083 84.4984 330.259C84.4984 333.434 87.073 336.009 90.2489 336.009Z" fill="#C8DA45"/>
<path d="M5.75049 336.009C8.92641 336.009 11.501 333.434 11.501 330.259C11.501 327.083 8.92641 324.508 5.75049 324.508C2.57458 324.508 0 327.083 0 330.259C0 333.434 2.57458 336.009 5.75049 336.009Z" fill="#C8DA45"/>
<path d="M496.009 336.009C499.184 336.009 501.759 333.434 501.759 330.259C501.759 327.083 499.184 324.508 496.009 324.508C492.833 324.508 490.258 327.083 490.258 330.259C490.258 333.434 492.833 336.009 496.009 336.009Z" fill="#C8DA45"/>
<path d="M416.02 336.009C419.196 336.009 421.771 333.434 421.771 330.259C421.771 327.083 419.196 324.508 416.02 324.508C412.844 324.508 410.27 327.083 410.27 330.259C410.27 333.434 412.844 336.009 416.02 336.009Z" fill="#C8DA45"/>
<path d="M331.522 336.009C334.698 336.009 337.272 333.434 337.272 330.259C337.272 327.083 334.698 324.508 331.522 324.508C328.346 324.508 325.771 327.083 325.771 330.259C325.771 333.434 328.346 336.009 331.522 336.009Z" fill="#C8DA45"/>
<path d="M251.533 336.009C254.709 336.009 257.284 333.434 257.284 330.259C257.284 327.083 254.709 324.508 251.533 324.508C248.358 324.508 245.783 327.083 245.783 330.259C245.783 333.434 248.358 336.009 251.533 336.009Z" fill="#C8DA45"/>
<path d="M170.237 11.501C173.413 11.501 175.988 8.92641 175.988 5.75049C175.988 2.57458 173.413 0 170.237 0C167.061 0 164.487 2.57458 164.487 5.75049C164.487 8.92641 167.061 11.501 170.237 11.501Z" fill="#C8DA45"/>
<path d="M170.237 93.4287C173.413 93.4287 175.988 90.8541 175.988 87.6782C175.988 84.5023 173.413 81.9277 170.237 81.9277C167.061 81.9277 164.487 84.5023 164.487 87.6782C164.487 90.8541 167.061 93.4287 170.237 93.4287Z" fill="#C8DA45"/>
<path d="M170.237 170.868C173.413 170.868 175.988 168.294 175.988 165.118C175.988 161.942 173.413 159.367 170.237 159.367C167.061 159.367 164.487 161.942 164.487 165.118C164.487 168.294 167.061 170.868 170.237 170.868Z" fill="#C8DA45"/>
<path d="M170.237 252.796C173.413 252.796 175.988 250.222 175.988 247.046C175.988 243.87 173.413 241.295 170.237 241.295C167.061 241.295 164.487 243.87 164.487 247.046C164.487 250.222 167.061 252.796 170.237 252.796Z" fill="#C8DA45"/>
<path d="M90.2489 11.501C93.4248 11.501 95.9994 8.92641 95.9994 5.75049C95.9994 2.57458 93.4248 0 90.2489 0C87.073 0 84.4984 2.57458 84.4984 5.75049C84.4984 8.92641 87.073 11.501 90.2489 11.501Z" fill="#C8DA45"/>
<path d="M90.2489 93.4287C93.4248 93.4287 95.9994 90.8541 95.9994 87.6782C95.9994 84.5023 93.4248 81.9277 90.2489 81.9277C87.073 81.9277 84.4984 84.5023 84.4984 87.6782C84.4984 90.8541 87.073 93.4287 90.2489 93.4287Z" fill="#C8DA45"/>
<path d="M90.2489 170.868C93.4248 170.868 95.9994 168.294 95.9994 165.118C95.9994 161.942 93.4248 159.367 90.2489 159.367C87.073 159.367 84.4984 161.942 84.4984 165.118C84.4984 168.294 87.073 170.868 90.2489 170.868Z" fill="#C8DA45"/>
<path d="M90.2489 252.796C93.4248 252.796 95.9994 250.222 95.9994 247.046C95.9994 243.87 93.4248 241.295 90.2489 241.295C87.073 241.295 84.4984 243.87 84.4984 247.046C84.4984 250.222 87.073 252.796 90.2489 252.796Z" fill="#C8DA45"/>
<path d="M5.75049 11.501C8.92641 11.501 11.501 8.92641 11.501 5.75049C11.501 2.57458 8.92641 0 5.75049 0C2.57458 0 0 2.57458 0 5.75049C0 8.92641 2.57458 11.501 5.75049 11.501Z" fill="#C8DA45"/>
<path d="M5.75049 93.4287C8.92641 93.4287 11.501 90.8541 11.501 87.6782C11.501 84.5023 8.92641 81.9277 5.75049 81.9277C2.57458 81.9277 0 84.5023 0 87.6782C0 90.8541 2.57458 93.4287 5.75049 93.4287Z" fill="#C8DA45"/>
<path d="M5.75049 170.868C8.92641 170.868 11.501 168.294 11.501 165.118C11.501 161.942 8.92641 159.367 5.75049 159.367C2.57458 159.367 0 161.942 0 165.118C0 168.294 2.57458 170.868 5.75049 170.868Z" fill="#C8DA45"/>
<path d="M5.75049 252.796C8.92641 252.796 11.501 250.222 11.501 247.046C11.501 243.87 8.92641 241.295 5.75049 241.295C2.57458 241.295 0 243.87 0 247.046C0 250.222 2.57458 252.796 5.75049 252.796Z" fill="#C8DA45"/>
<path d="M496.009 11.501C499.184 11.501 501.759 8.92641 501.759 5.75049C501.759 2.57458 499.184 0 496.009 0C492.833 0 490.258 2.57458 490.258 5.75049C490.258 8.92641 492.833 11.501 496.009 11.501Z" fill="#C8DA45"/>
<path d="M496.009 93.4287C499.184 93.4287 501.759 90.8541 501.759 87.6782C501.759 84.5023 499.184 81.9277 496.009 81.9277C492.833 81.9277 490.258 84.5023 490.258 87.6782C490.258 90.8541 492.833 93.4287 496.009 93.4287Z" fill="#C8DA45"/>
<path d="M496.009 170.868C499.184 170.868 501.759 168.294 501.759 165.118C501.759 161.942 499.184 159.367 496.009 159.367C492.833 159.367 490.258 161.942 490.258 165.118C490.258 168.294 492.833 170.868 496.009 170.868Z" fill="#C8DA45"/>
<path d="M496.009 252.796C499.184 252.796 501.759 250.222 501.759 247.046C501.759 243.87 499.184 241.295 496.009 241.295C492.833 241.295 490.258 243.87 490.258 247.046C490.258 250.222 492.833 252.796 496.009 252.796Z" fill="#C8DA45"/>
<path d="M416.02 11.501C419.196 11.501 421.771 8.92641 421.771 5.75049C421.771 2.57458 419.196 0 416.02 0C412.844 0 410.27 2.57458 410.27 5.75049C410.27 8.92641 412.844 11.501 416.02 11.501Z" fill="#C8DA45"/>
<path d="M416.02 93.4287C419.196 93.4287 421.771 90.8541 421.771 87.6782C421.771 84.5023 419.196 81.9277 416.02 81.9277C412.844 81.9277 410.27 84.5023 410.27 87.6782C410.27 90.8541 412.844 93.4287 416.02 93.4287Z" fill="#C8DA45"/>
<path d="M416.02 170.868C419.196 170.868 421.771 168.294 421.771 165.118C421.771 161.942 419.196 159.367 416.02 159.367C412.844 159.367 410.27 161.942 410.27 165.118C410.27 168.294 412.844 170.868 416.02 170.868Z" fill="#C8DA45"/>
<path d="M416.02 252.796C419.196 252.796 421.771 250.222 421.771 247.046C421.771 243.87 419.196 241.295 416.02 241.295C412.844 241.295 410.27 243.87 410.27 247.046C410.27 250.222 412.844 252.796 416.02 252.796Z" fill="#C8DA45"/>
<path d="M331.522 11.501C334.698 11.501 337.272 8.92641 337.272 5.75049C337.272 2.57458 334.698 0 331.522 0C328.346 0 325.771 2.57458 325.771 5.75049C325.771 8.92641 328.346 11.501 331.522 11.501Z" fill="#C8DA45"/>
<path d="M331.522 93.4287C334.698 93.4287 337.272 90.8541 337.272 87.6782C337.272 84.5023 334.698 81.9277 331.522 81.9277C328.346 81.9277 325.771 84.5023 325.771 87.6782C325.771 90.8541 328.346 93.4287 331.522 93.4287Z" fill="#C8DA45"/>
<path d="M331.522 170.868C334.698 170.868 337.272 168.294 337.272 165.118C337.272 161.942 334.698 159.367 331.522 159.367C328.346 159.367 325.771 161.942 325.771 165.118C325.771 168.294 328.346 170.868 331.522 170.868Z" fill="#C8DA45"/>
<path d="M331.522 252.796C334.698 252.796 337.272 250.222 337.272 247.046C337.272 243.87 334.698 241.295 331.522 241.295C328.346 241.295 325.771 243.87 325.771 247.046C325.771 250.222 328.346 252.796 331.522 252.796Z" fill="#C8DA45"/>
<path d="M251.533 11.501C254.709 11.501 257.284 8.92641 257.284 5.75049C257.284 2.57458 254.709 0 251.533 0C248.358 0 245.783 2.57458 245.783 5.75049C245.783 8.92641 248.358 11.501 251.533 11.501Z" fill="#C8DA45"/>
<path d="M251.533 93.4287C254.709 93.4287 257.284 90.8541 257.284 87.6782C257.284 84.5023 254.709 81.9277 251.533 81.9277C248.358 81.9277 245.783 84.5023 245.783 87.6782C245.783 90.8541 248.358 93.4287 251.533 93.4287Z" fill="#C8DA45"/>
<path d="M251.533 170.868C254.709 170.868 257.284 168.294 257.284 165.118C257.284 161.942 254.709 159.367 251.533 159.367C248.358 159.367 245.783 161.942 245.783 165.118C245.783 168.294 248.358 170.868 251.533 170.868Z" fill="#C8DA45"/>
<path d="M251.533 252.796C254.709 252.796 257.284 250.222 257.284 247.046C257.284 243.87 254.709 241.295 251.533 241.295C248.358 241.295 245.783 243.87 245.783 247.046C245.783 250.222 248.358 252.796 251.533 252.796Z" fill="#C8DA45"/>
</svg>
