<svg width="322" height="83" viewBox="0 0 322 83" fill="none" xmlns="http://www.w3.org/2000/svg">
<g clip-path="url(#clip0_26_8703)">
<path d="M163.97 65.6702C170.08 65.6702 173.63 62.3502 173.81 56.5302C173.81 56.5002 173.81 56.4602 173.81 56.4302C173.63 50.6102 170.08 47.2902 163.97 47.2902H155.5C154.95 47.2902 154.51 47.7302 154.51 48.2802V64.6802C154.51 65.2302 154.95 65.6702 155.5 65.6702H163.97ZM167.51 71.6402C167.32 71.3002 166.95 71.1102 166.56 71.1402C165.77 71.2102 164.94 71.2402 164.08 71.2402H155.5C154.95 71.2402 154.51 71.6802 154.51 72.2302V81.4602C154.51 82.0102 154.07 82.4502 153.52 82.4502H149.04C148.5 82.4502 148.05 82.0102 148.05 81.4602V50.4102C148.05 48.4402 148.07 44.5202 148.08 42.7002C148.08 42.1602 148.52 41.7202 149.07 41.7202H164.07C174.13 41.7202 180.04 47.0802 180.31 56.3702C180.21 61.9502 178.09 66.1502 174.27 68.6302C173.83 68.9102 173.69 69.4802 173.94 69.9402L180.14 80.9802C180.51 81.6402 180.03 82.4502 179.28 82.4502H174.11C173.75 82.4502 173.42 82.2602 173.25 81.9402L167.51 71.6402Z" fill="#242838"/>
<path d="M192.45 62.11C192.45 71.46 197.37 76.98 205.95 76.98C214.26 76.98 219.34 71.46 219.4 62.11C219.35 52.71 214.26 47.18 205.95 47.18C197.48 47.19 192.51 52.71 192.45 62.11ZM185.78 62.17C185.84 48.88 193.16 41.23 205.96 41.23C218.59 41.23 226.08 48.88 226.08 62.17C226.08 75.4 218.59 82.95 205.96 82.95C193.16 82.94 185.84 75.4 185.78 62.17Z" fill="#242838"/>
<path d="M274.13 82.45H269.65C269.1 82.45 268.66 82.01 268.66 81.46V55.56C268.66 54.6 267.42 54.2 266.86 54.99L255.61 71.03C255.42 71.29 255.12 71.45 254.8 71.45H252.33C252.01 71.45 251.71 71.3 251.52 71.03L240.27 55.08C239.71 54.29 238.48 54.69 238.48 55.65V81.46C238.48 82.01 238.04 82.45 237.49 82.45H233.01C232.46 82.45 232.02 82.01 232.02 81.46V50.41C232.02 48.44 232.02 44.53 232.02 42.7C232.02 42.15 232.46 41.71 233.01 41.71H237.35C237.67 41.71 237.98 41.87 238.16 42.13L252.74 63.17C253.13 63.74 253.97 63.74 254.36 63.17L268.89 42.14C269.07 41.87 269.38 41.71 269.7 41.71H274.1C274.65 41.71 275.09 42.15 275.09 42.7V81.46C275.12 82.01 274.68 82.45 274.13 82.45Z" fill="#242838"/>
<path d="M294.29 68.7802H307.15C307.88 68.7802 308.36 68.0202 308.04 67.3602L301.63 54.2002C301.27 53.4602 300.22 53.4602 299.86 54.2002L293.41 67.3602C293.08 68.0202 293.56 68.7802 294.29 68.7802ZM290.42 74.7802L287.28 81.8602C287.12 82.2202 286.77 82.4502 286.38 82.4502H281.37C280.64 82.4502 280.17 81.6902 280.48 81.0402L297.21 45.9802C297.34 45.7102 297.34 45.3902 297.21 45.1202L296.25 43.1402C295.93 42.4802 296.41 41.7202 297.14 41.7202H301.61C301.99 41.7202 302.34 41.9402 302.5 42.2802L320.97 81.0402C321.28 81.7002 320.8 82.4502 320.08 82.4502H315.02C314.63 82.4502 314.27 82.2202 314.11 81.8502L311.07 74.7902C310.92 74.4302 310.56 74.1902 310.16 74.1902H291.33C290.93 74.2002 290.58 74.4302 290.42 74.7802Z" fill="#242838"/>
<path d="M149.57 11.8499C151.36 10.0599 153.52 9.16992 156.06 9.16992C157.91 9.16992 159.56 9.65992 161 10.6499C162.44 11.6399 163.52 12.9599 164.25 14.6299L161.31 15.4299C160.83 14.3999 160.13 13.5899 159.2 12.9799C158.27 12.3799 157.23 12.0799 156.06 12.0799C154.33 12.0799 152.87 12.6899 151.71 13.9099C150.54 15.1299 149.96 16.6199 149.96 18.3899C149.96 20.1399 150.54 21.6199 151.7 22.8299C152.86 24.0399 154.32 24.6499 156.07 24.6499C157.44 24.6499 158.65 24.2499 159.68 23.4399C160.71 22.6299 161.4 21.5299 161.74 20.1199L156.13 20.1399L156.08 17.5099H164.73V18.6399C164.73 21.1999 163.91 23.3299 162.27 25.0299C160.63 26.7299 158.57 27.5799 156.08 27.5799C153.54 27.5799 151.37 26.6799 149.59 24.8799C147.8 23.0799 146.91 20.9099 146.91 18.3899C146.9 15.8299 147.79 13.6499 149.57 11.8499Z" fill="#242838"/>
<path d="M192.72 18.3601C193.65 18.3601 194.42 18.0601 195.04 17.4701C195.66 16.8801 195.97 16.1301 195.97 15.2201C195.97 14.3401 195.68 13.6101 195.11 13.0001C194.53 12.4001 193.78 12.1001 192.86 12.1001H188.1V18.3601H192.72ZM185.04 27.3801V9.3501H192.84C194.57 9.3501 196.02 9.9401 197.18 11.1101C198.34 12.2901 198.92 13.6901 198.92 15.3201C198.92 16.5701 198.56 17.6901 197.83 18.6601C197.1 19.6301 196.16 20.3001 195.01 20.6601L199.16 27.3801H195.86L191.94 21.0401H188.08V27.3801H185.04Z" fill="#242838"/>
<path d="M222.31 9.37988V20.0699C222.31 21.4799 222.75 22.5999 223.64 23.4399C224.52 24.2799 225.57 24.6999 226.77 24.6999C227.95 24.6999 228.99 24.2799 229.89 23.4399C230.78 22.5999 231.23 21.4699 231.23 20.0699V9.37988H234.29V20.0699C234.29 22.2799 233.57 24.0899 232.13 25.4799C230.67 26.8899 228.88 27.5899 226.77 27.5899C224.66 27.5899 222.88 26.8999 221.43 25.5299C219.98 24.1599 219.25 22.3399 219.25 20.0699V9.37988H222.31Z" fill="#242838"/>
<path d="M258.21 18.6201H262.77C263.77 18.6201 264.56 18.3001 265.17 17.6501C265.77 17.0101 266.07 16.2201 266.07 15.2901C266.07 14.3601 265.77 13.6001 265.18 13.0001C264.59 12.4001 263.79 12.1001 262.77 12.1001L258.21 12.1201V18.6201V18.6201ZM255.15 27.3801V9.3501H262.95C264.68 9.3501 266.13 9.9401 267.29 11.1101C268.45 12.2901 269.03 13.7101 269.03 15.3701C269.03 17.0501 268.46 18.4601 267.32 19.6101C266.18 20.7501 264.72 21.3301 262.95 21.3501L258.21 21.3701V27.3701H255.15V27.3801Z" fill="#242838"/>
<path d="M291.95 18.3899C291.95 20.1399 292.53 21.6299 293.69 22.8599C294.85 24.0899 296.3 24.6999 298.05 24.6999C299.78 24.6999 301.23 24.0899 302.39 22.8599C303.55 21.6299 304.13 20.1399 304.13 18.3899C304.13 16.6199 303.55 15.1199 302.38 13.8799C301.21 12.6399 299.77 12.0299 298.05 12.0299C296.32 12.0299 294.87 12.6499 293.7 13.8799C292.54 15.1199 291.95 16.6199 291.95 18.3899ZM291.57 11.8499C293.36 10.0599 295.52 9.16992 298.06 9.16992C300.57 9.16992 302.71 10.0699 304.5 11.8699C306.29 13.6699 307.18 15.2099 307.19 16.4899C307.2 17.7699 307.2 18.4299 307.2 18.4599C307.2 20.9699 306.32 23.0999 304.55 24.8699C302.76 26.6699 300.6 27.5799 298.06 27.5799C295.52 27.5799 293.35 26.6799 291.57 24.8699C289.78 23.0699 288.89 20.8999 288.89 18.3799C288.89 15.8299 289.78 13.6499 291.57 11.8499Z" fill="#242838"/>
<path d="M8.03999 81.31C4.23999 75.21 1.74999 68.49 0.639985 61.34C-1.54001 47.3 1.87999 33.26 10.27 21.8C18.66 10.33 31.01 2.82002 45.05 0.640017C56.8 -1.17998 68.5 0.890018 78.89 6.63002L68.34 25.73C62.22 22.35 55.32 21.13 48.39 22.2C40.11 23.48 32.83 27.91 27.88 34.68C22.93 41.44 20.91 49.72 22.2 58C22.85 62.23 24.32 66.19 26.56 69.78L8.03999 81.31Z" fill="#242838"/>
<path d="M31.11 63.2401C29.58 60.0301 28.8 56.5801 28.8 52.9901C28.8 39.8401 39.5 29.1401 52.64 29.1401C57.42 29.1401 62.03 30.5501 65.97 33.2101L63.2 37.3201C60.08 35.2101 56.42 34.1001 52.64 34.1001C42.23 34.1001 33.75 42.5701 33.75 52.9901C33.75 55.8301 34.36 58.5601 35.58 61.1001L31.11 63.2401Z" fill="#242838"/>
<path d="M35.54 69.1598V81.4898C35.54 82.0298 35.97 82.4598 36.51 82.4598H48.35C48.89 82.4598 49.32 82.0298 49.32 81.4898V73.0598C49.32 72.5298 49.75 72.0898 50.29 72.0898H54.29C54.52 72.0898 54.75 72.0898 54.97 72.0798L60.49 81.9498C60.66 82.2598 60.98 82.4498 61.34 82.4498H74.96C75.7 82.4498 76.17 81.6498 75.8 81.0098L68.44 67.9398C68.23 67.5598 68.3 67.0998 68.6 66.7898C71.52 63.7398 73.14 59.5198 73.23 54.5198V54.4298V54.3398C73.2 53.2798 73.1 52.2598 72.93 51.2798" fill="#242838"/>
<path d="M112.77 4.04004H111.06V82.19H112.77V4.04004Z" fill="#242838"/>
</g>
<defs>
<clipPath id="clip0_26_8703">
<rect width="321.05" height="82.94" fill="white"/>
</clipPath>
</defs>
</svg>
