<svg width="275" height="94" viewBox="0 0 275 94" fill="none" xmlns="http://www.w3.org/2000/svg">
<g clip-path="url(#clip0_26_8727)">
<path d="M93.7593 61.6527L77.4372 32.8731C75.0345 28.635 69.8046 26.7061 65.3605 28.6802C63.2288 29.6221 61.6571 31.2521 60.7268 33.1629L34.1797 79.6829C31.8673 83.74 32.6441 89.0014 36.2933 91.9265C40.882 95.6032 47.521 94.1905 50.3301 89.2731L61.5578 69.5947C64.9089 63.7265 73.3544 63.7355 76.6875 69.6128C79.2528 74.1407 81.5742 80.0271 88.0326 77.9714C95.1864 75.6893 97.264 67.8379 93.7593 61.6527Z" fill="#D4D92E"/>
<path d="M1.67092 32.3477L17.993 61.1273C20.3957 65.3654 25.6256 67.2943 30.0697 65.3201C32.2014 64.3783 33.7731 62.7483 34.7034 60.8375L61.2415 14.3174C63.5538 10.2604 62.777 4.99894 59.1278 2.07389C54.5392 -1.6028 47.9002 -0.19008 45.1001 4.72726L33.8724 24.4057C30.5213 30.2739 22.0757 30.2648 18.7427 24.3876C16.1774 19.8596 13.856 13.9733 7.39764 16.029C0.234719 18.3111 -1.8428 26.1625 1.67092 32.3477Z" fill="#D4D92E"/>
<path d="M132.997 47.6064L141.226 26.3613L150.557 26.4338L136.041 59.1527L129.538 59.1074L115.591 26.1621L124.922 26.2346L132.997 47.6064Z" fill="white"/>
<path d="M164.53 17.6139C164.521 19.0991 164.006 20.3488 162.995 21.3449C161.983 22.3411 160.737 22.8391 159.255 22.8301C157.774 22.821 156.527 22.3048 155.534 21.2906C154.54 20.2763 154.043 19.0266 154.061 17.5324C154.07 16.0472 154.585 14.8247 155.597 13.8648C156.609 12.8686 157.855 12.3705 159.337 12.3887C160.818 12.3977 162.064 12.9139 163.058 13.9282C164.052 14.8881 164.548 16.1197 164.53 17.6139ZM163.437 26.5339L163.184 59.4249L154.694 59.3615L154.947 26.4705L163.437 26.5339Z" fill="white"/>
<path d="M192.026 51.0114L194.501 57.7308C191.755 59.5239 188.521 60.4023 184.791 60.3751C181.015 60.348 178.179 59.225 176.273 57.0245C174.358 54.8148 173.427 51.5819 173.455 47.3166L173.563 33.7418L168.207 33.6965L168.261 26.5786L173.68 26.6239L173.771 14.978L182.198 15.0414L182.108 26.6873L192.938 26.7688L192.884 33.8867L182.054 33.8052L181.954 46.8366C181.927 50.6944 183.454 52.6414 186.543 52.6686C188.223 52.6776 190.048 52.1252 192.026 51.0114Z" fill="white"/>
<path d="M219.774 51.2286L222.249 57.9481C219.503 59.7412 216.269 60.6196 212.539 60.5924C208.763 60.5653 205.927 59.4423 204.021 57.2417C202.106 55.0321 201.176 51.7992 201.203 47.5338L201.311 33.9591L195.955 33.9138L196.009 26.7959L201.429 26.8412L201.519 15.1953L209.947 15.2587L209.856 26.9046L220.686 26.9861L220.632 34.104L209.802 34.0225L209.703 47.0539C209.676 50.9117 211.202 52.8587 214.291 52.8859C215.971 52.8859 217.805 52.3425 219.774 51.2286Z" fill="white"/>
<path d="M250.991 31.1336L251.018 27.2124L259.084 27.2758L258.831 60.1667L250.765 60.1033L250.792 56.2999C247.956 59.3336 244.46 60.8369 240.287 60.8097C235.554 60.7735 231.67 59.0981 228.644 55.7746C225.618 52.4511 224.128 48.2945 224.164 43.3047C224.2 38.3602 225.781 34.285 228.897 31.0883C232.013 27.8554 235.897 26.2525 240.549 26.2887C244.65 26.3159 248.128 27.9278 250.991 31.1336ZM251.018 43.6216C251.036 41.0498 250.169 38.8039 248.417 36.9022C246.701 35.0367 244.524 34.0949 241.877 34.0767C239.185 34.0586 236.972 34.9642 235.238 36.8026C233.54 38.6409 232.682 40.8686 232.655 43.4858C232.637 46.1392 233.477 48.4031 235.193 50.2686C236.909 52.1342 239.086 53.076 241.733 53.0941C244.379 53.1122 246.574 52.2066 248.317 50.3683C250.097 48.4846 251 46.2388 251.018 43.6216Z" fill="white"/>
<path d="M270.149 61.2087C268.74 61.1996 267.566 60.7197 266.609 59.7598C265.651 58.8089 265.181 57.6226 265.19 56.2189C265.199 54.8515 265.687 53.7104 266.663 52.7867C267.629 51.8721 268.822 51.4193 270.222 51.4284C271.549 51.4374 272.679 51.9083 273.609 52.8411C274.539 53.7738 275.009 54.9239 275 56.2914C274.991 57.695 274.503 58.8723 273.555 59.8141C272.606 60.7559 271.477 61.2178 270.149 61.2087Z" fill="white"/>
<path d="M126.891 73.1894C126.078 73.1804 125.419 72.9087 124.904 72.3744C124.38 71.831 124.127 71.1609 124.127 70.3549C124.136 69.5399 124.416 68.8607 124.967 68.3355C125.518 67.8012 126.196 67.5385 126.972 67.5476C127.424 67.5476 127.849 67.6472 128.264 67.8374C128.68 68.0276 129.005 68.2721 129.24 68.58L128.914 68.8788C128.698 68.6071 128.409 68.3898 128.065 68.2268C127.722 68.0728 127.352 67.9913 126.972 67.9823C126.304 67.9823 125.735 68.1996 125.274 68.6615C124.814 69.1143 124.588 69.6848 124.579 70.364C124.57 71.0522 124.795 71.6227 125.229 72.0846C125.672 72.5374 126.223 72.7638 126.891 72.7728C127.659 72.7819 128.336 72.483 128.932 71.8854L128.942 70.5994L126.765 70.5813V70.1647L129.384 70.1829L129.366 72.0574C128.707 72.8181 127.876 73.1985 126.891 73.1894Z" fill="white"/>
<path d="M142.734 73.2264H142.192L140.81 70.9081L139.717 70.899L139.699 73.2083H139.248L139.293 67.7295L140.937 67.7385C141.497 67.7476 141.921 67.9015 142.211 68.2276C142.509 68.5355 142.653 68.9068 142.653 69.3414C142.653 69.7127 142.527 70.0387 142.292 70.3195C142.066 70.6002 141.732 70.7813 141.289 70.8628L142.734 73.2264ZM140.937 68.1732L139.736 68.1642L139.717 70.4644L140.81 70.4734C141.244 70.4734 141.578 70.3738 141.822 70.1655C142.057 69.9572 142.183 69.6765 142.183 69.3233C142.183 68.9792 142.075 68.7075 141.849 68.4902C141.632 68.2819 141.325 68.1732 140.937 68.1732Z" fill="white"/>
<path d="M156.491 73.3341H155.994L155.353 71.6678L153.059 71.6497L152.399 73.3069H151.903L154.125 67.8462H154.368L156.491 73.3341ZM155.209 71.2421L154.233 68.6522L153.212 71.2331L155.209 71.2421Z" fill="white"/>
<path d="M169.571 73.4344L166.075 73.4073L166.111 67.9375H166.563L166.527 72.9726L169.58 72.9998L169.571 73.4344Z" fill="white"/>
<path d="M179.208 73.6243C179.109 73.6243 179.019 73.5881 178.946 73.5156C178.874 73.4432 178.847 73.3617 178.847 73.2621C178.847 73.1625 178.883 73.081 178.955 73.0176C179.028 72.9542 179.109 72.918 179.217 72.918C179.317 72.918 179.398 72.9542 179.47 73.0176C179.543 73.081 179.57 73.1625 179.57 73.2621C179.57 73.3617 179.534 73.4523 179.461 73.5156C179.389 73.5972 179.308 73.6334 179.208 73.6243Z" fill="white"/>
<path d="M203.515 73.6966L200.02 73.6695L200.056 68.1997H200.508L200.471 73.2348L203.524 73.2619L203.515 73.6966Z" fill="white"/>
<path d="M217.037 73.7964H216.54L215.899 72.1302L213.605 72.1121L212.945 73.7693H212.449L214.671 68.3086H214.915L217.037 73.7964ZM215.764 71.7136L214.788 69.1236L213.758 71.7045L215.764 71.7136Z" fill="white"/>
<path d="M228.897 73.9778C228.084 73.9687 227.425 73.697 226.91 73.1627C226.386 72.6194 226.133 71.9492 226.133 71.1433C226.142 70.3282 226.422 69.649 226.973 69.1147C227.524 68.5805 228.202 68.3178 228.978 68.3269C229.43 68.3269 229.855 68.4265 230.27 68.6167C230.686 68.8068 231.011 69.0514 231.246 69.3593L230.92 69.649C230.704 69.3774 230.415 69.16 230.071 69.0061C229.728 68.8521 229.358 68.7706 228.978 68.7616C228.31 68.7525 227.741 68.9789 227.28 69.4408C226.82 69.8936 226.594 70.4641 226.585 71.1433C226.576 71.8315 226.802 72.402 227.235 72.8548C227.678 73.3076 228.229 73.534 228.897 73.5431C229.665 73.5521 230.342 73.2533 230.939 72.6556L230.948 71.3697L228.771 71.3515V70.9259L231.39 70.944L231.372 72.8186C230.704 73.5974 229.873 73.9778 228.897 73.9778Z" fill="white"/>
<path d="M243.666 74.0955C242.889 74.0864 242.229 73.8057 241.696 73.2623C241.154 72.7009 240.893 72.0398 240.902 71.261C240.911 70.4822 241.191 69.812 241.733 69.2596C242.284 68.7072 242.952 68.4355 243.729 68.4355C244.506 68.4446 245.156 68.7253 245.698 69.2777C246.249 69.8302 246.52 70.5003 246.511 71.2791C246.502 72.0579 246.222 72.728 245.671 73.2714C245.111 73.8328 244.442 74.1045 243.666 74.0955ZM243.684 73.6608C244.343 73.6698 244.903 73.4434 245.355 72.9816C245.815 72.5197 246.041 71.9492 246.05 71.2881C246.059 70.618 245.833 70.0565 245.382 69.5766C244.939 69.1057 244.388 68.8702 243.729 68.8702C243.069 68.8702 242.518 69.0966 242.058 69.5585C241.597 70.0294 241.371 70.5908 241.362 71.2519C241.353 71.913 241.579 72.4835 242.031 72.9544C242.464 73.4163 243.024 73.6517 243.684 73.6608Z" fill="white"/>
<path d="M257.585 74.2036C257.188 74.2036 256.835 74.104 256.519 73.8957C256.203 73.6965 255.959 73.4158 255.806 73.0445L256.167 72.8C256.302 73.0988 256.492 73.3433 256.736 73.5063C256.98 73.6784 257.26 73.7599 257.576 73.769C257.946 73.769 258.244 73.6693 258.479 73.4701C258.714 73.2709 258.831 73.0173 258.831 72.7185C258.831 72.5102 258.777 72.3381 258.66 72.1842C258.542 72.0393 258.362 71.9035 258.127 71.7767C257.973 71.6952 257.784 71.6137 257.567 71.514C257.287 71.3873 257.115 71.3058 257.025 71.2605C256.402 70.9435 256.095 70.5088 256.104 69.9474C256.104 69.5399 256.257 69.1957 256.537 68.9331C256.826 68.6615 257.206 68.5347 257.675 68.5347C258.326 68.5437 258.841 68.8154 259.211 69.3587L258.868 69.6304C258.561 69.1867 258.163 68.9603 257.675 68.9512C257.35 68.9512 257.088 69.0418 256.88 69.2139C256.673 69.395 256.573 69.6304 256.564 69.9202C256.564 70.2915 256.781 70.5994 257.215 70.8349C257.332 70.8983 257.531 70.9979 257.811 71.1246C258.118 71.2605 258.326 71.3601 258.434 71.4144C259.021 71.7404 259.31 72.1661 259.301 72.6913C259.301 73.135 259.13 73.4973 258.795 73.778C258.479 74.0678 258.073 74.2036 257.585 74.2036Z" fill="white"/>
</g>
<defs>
<clipPath id="clip0_26_8727">
<rect width="275" height="94" fill="white"/>
</clipPath>
</defs>
</svg>
