<svg width="42" height="45" viewBox="0 0 42 45" fill="none" xmlns="http://www.w3.org/2000/svg">
<g clip-path="url(#clip0_26_8751)">
<path d="M36.12 0.7998C38.69 1.7198 41.04 6.1198 41.36 8.2398C41.64 10.1398 41.76 12.5398 40.92 15.1798C40.41 16.7798 39.73 18.8298 38.6 21.4598C33.83 32.5098 22.7 39.7298 21.96 40.2898C21.22 40.8398 15.99 44.7898 10.56 44.7898C5.14 44.7898 2.47 41.9398 1.37 40.9298C0.28 39.9198 0 38.7298 0 37.9998C0 37.2698 0.01 36.5298 0.04 35.8898C0.07 35.2098 -0.22 34.2998 1.93 33.4098C4.14 32.4898 9.56 30.2898 10.11 30.0098C10.66 29.7298 11.31 29.5498 12.04 29.9198C12.78 30.2898 14.36 31.5098 15.81 32.6698C16.42 33.1598 16.96 33.7998 18.06 33.1498C19.16 32.5098 22.77 30.2998 25.69 27.0198C29.44 22.8098 30.61 19.2598 31.16 18.1598C31.71 17.0598 31.62 16.4198 30.88 15.7698C30.14 15.1298 27.66 13.0198 26.56 12.2798C25.46 11.5498 25.64 10.8098 26.01 9.7998C26.38 8.7898 29.04 3.3698 29.59 2.2698C30.14 1.1698 30.42 0.4298 30.88 0.1598C31.34 -0.1202 33.55 -0.1202 36.12 0.7998Z" fill="#D2D92B"/>
</g>
<defs>
<clipPath id="clip0_26_8751">
<rect width="41.57" height="44.79" fill="white"/>
</clipPath>
</defs>
</svg>
